<svg width="69" height="69" viewBox="0 0 369 369" fill="none" xmlns="http://www.w3.org/2000/svg"><circle cx="184.5" cy="184.5" r="154.5" fill="#e94343"/><circle cx="184.5" cy="184.5" r="177" stroke="#e94343" stroke-width="15"/><path d="M118.296 115.24c-4.096 0-7.168-1.152-9.216-3.456-2.048-2.304-3.072-5.248-3.072-8.832 0-4.096 1.216-7.488 3.648-10.176 2.56-2.688 6.016-4.032 10.368-4.032s7.552 1.152 9.6 3.456c2.048 2.304 3.072 5.248 3.072 8.832 0 4.352-1.28 7.808-3.84 10.368-2.432 2.56-5.888 3.84-10.368 3.84h-.192zm-7.68 33.984l-14.592-3.456v-10.176l29.76-3.648h.384l4.416 3.456v94.656l15.36 1.536V241h-50.88v-9.408l15.552-1.728v-80.64zm65.526 79.157l37.841-38.651-37.841-38.651 14.581-14.581 37.726 38.535 37.841-38.535 14.581 14.581-37.957 38.651 37.957 38.651-14.581 14.581-37.841-38.42-37.726 38.42-14.581-14.581z" fill="#fff"/></svg>