<svg viewBox="0 0 155 64" xmlns="http://www.w3.org/2000/svg"><path fill="#0A9928" d="M10.6 19c3.3 0 6.4 1 8.8 2.7l-.9-2.3H28l3.2 11.4.7 2.6s.4-1.3.7-2.6l3.3-11.4h9.5l-.8 2.4c2.4-1.8 5.5-2.7 8.8-2.7.5 0 .9 0 1.4.1L49.9.8.7 14l1.9 7.2c2.3-1.4 5-2.2 8-2.2zm42.8 8.3c-2.9 0-4.7 2.2-4.7 4.9 0 2.9 1.9 4.8 4.7 4.8 2.8 0 4.7-2 4.7-4.8 0-.4 0-.8-.1-1.1l-.2-.6c-.6-1.9-2.2-3.2-4.4-3.2zm-38.2 4.8c0-2.7-1.8-4.9-4.7-4.9-2.9 0-4.7 2.2-4.7 4.9 0 2.9 1.9 4.8 4.7 4.8 2.8.1 4.7-1.9 4.7-4.8zm38.2 12.8c-6.9 0-12.6-3.9-13.7-10.5l-3.9 10.1h-7.7l-3.9-10.1c-1.1 6.6-6.8 10.5-13.7 10.5-.5 0-1.1 0-1.6-.1l4.9 18.4L63 50l-1.9-7.1c-2.1 1.3-4.8 2-7.7 2zm17.4-11.4c0 2.8 1.8 5 4.9 5 3.6 0 4.6-2.2 5.6-2.2.5 0 1 .4 1 1.2 0 1.3-3.4 3.4-6.6 3.4-5.3 0-7.6-4.1-7.6-8.5 0-4.5 2.8-8.5 7.4-8.5 4.5 0 7.1 4.1 7.1 8.1 0 1-.3 1.5-1.5 1.5H70.8zm9.1-2.1c0-2.4-1.4-5.1-4.4-5.1-3.4-.1-4.6 2.6-4.7 5.1h9.1zm4.9-6c0-.9.5-1.5 1.4-1.5.8 0 1.4.6 1.4 1.5v.7l.1.1c1.2-1.6 2.9-2.2 4.6-2.2 2.6 0 5.8 1.6 5.8 6.3v9.2c0 .9-.5 1.5-1.4 1.5-.8 0-1.4-.6-1.4-1.5v-9c0-2.9-2-4.1-3.8-4.1-1.8 0-3.8 1.2-3.8 4.1v9c0 .9-.5 1.5-1.4 1.5-.8 0-1.4-.6-1.4-1.5V25.4h-.1zm18.2 8.1c0 2.8 1.8 5 4.9 5 3.6 0 4.6-2.2 5.6-2.2.5 0 1 .4 1 1.2 0 1.3-3.4 3.4-6.6 3.4-5.3 0-7.6-4.1-7.6-8.5 0-4.5 2.8-8.5 7.4-8.5 4.5 0 7.1 4.1 7.1 8.1 0 1-.3 1.5-1.5 1.5H103zm9.1-2.1c0-2.4-1.4-5.1-4.4-5.1-3.4-.1-4.6 2.6-4.7 5.1h9.1zm4.9-6c0-.9.5-1.5 1.4-1.5.8 0 1.4.6 1.4 1.5v1.4h.1c.6-1.3 2.1-2.9 3.7-2.9 1 0 1.5.6 1.5 1.4 0 .8-.6 1.3-1.7 1.5-1.6.3-3.6 1.5-3.6 4.7v7.9c0 .9-.5 1.5-1.4 1.5-.8 0-1.4-.6-1.4-1.5v-14zm23 14.1c0 4.9-3 7.9-7.5 7.9-2.8 0-6.3-1.6-6.3-3 0-.6.3-1.3 1.2-1.3 1.2 0 2.5 1.9 5.4 1.9 3.5 0 4.5-2.7 4.5-5.1v-1.4h-.1c-.8 1.4-2.3 2.4-4.2 2.4-4.7 0-7.3-4.1-7.3-8.5s2.6-8.5 7.3-8.5c1.8 0 3.5 1.1 4.2 2.1h.1v-.7c0-1 .7-1.3 1.5-1.3.5 0 1.3.4 1.3 1.3v14.2h-.1zm-7-1c3.4 0 4.5-3.3 4.5-6.1s-1.2-6.1-4.5-6.1c-3.4 0-4.5 3.3-4.5 6.1s1.1 6.1 4.5 6.1zm9.4-11.9c-.3-.9-.4-1.2-.4-1.5 0-.7.6-1.2 1.2-1.2.7 0 1.2.4 1.4 1l3.8 11.4h.1l3.7-11.4c.2-.6.6-1 1.3-1 .6 0 1.2.5 1.2 1.2 0 .3-.1.6-.4 1.5l-6.9 19.7c-.2.6-.7 1-1.3 1-.6 0-1.2-.5-1.2-1.2 0-.3.1-.6.4-1.5L147 40l-4.6-13.4z"/></svg>