<svg xmlns="http://www.w3.org/2000/svg" xmlns:xlink="http://www.w3.org/1999/xlink" viewBox="0 0 1656.8 247.8"><g transform="translate(-131.363 -839.313)"><defs><path id="a" d="M790 865.3c-9.4 6.3-17.3 14-23.7 23.3v-29H726v226.9h40.2l-.3-79.8c6.2 8.1 14 15.3 23.4 21.4 9.5 6.2 21.3 9.2 35.6 9.2 10.3 0 20.4-2 30.2-5.9 9.8-4 18.5-9.8 26.1-17.6 7.6-7.8 13.6-17.3 18.1-28.5s6.8-24.1 6.8-38.6-2.3-27.4-6.9-38.6c-4.6-11.2-10.7-20.7-18.3-28.5-7.6-7.8-16.2-13.7-25.8-17.6-9.7-4-19.6-5.9-29.9-5.9-14.1-.2-25.8 2.9-35.2 9.2m6.6 133.4c-6.2-2.6-11.5-6.4-16.2-11.4-4.6-4.9-8.3-10.8-11-17.6-2.8-6.8-4.1-14.5-4.1-23.1 0-8.6 1.4-16.3 4.1-23.1 2.7-6.8 6.4-12.7 11-17.6 4.6-4.9 10-8.7 16.2-11.4 6.2-2.6 12.6-4 19.5-4s13.2 1.3 19.3 4c6 2.6 11.3 6.4 15.8 11.2 4.5 4.8 8.1 10.7 10.7 17.6 2.6 6.9 4 14.7 4 23.3 0 8.6-1.3 16.3-4 23.3-2.6 6.9-6.2 12.8-10.7 17.6-4.5 4.8-9.8 8.6-15.8 11.2-6.1 2.6-12.5 4-19.3 4s-13.3-1.4-19.5-4"/></defs><clipPath id="b"><use xlink:href="#a" overflow="visible"/></clipPath><g clip-path="url(#b)"><linearGradient id="c" gradientUnits="userSpaceOnUse" x1="662.369" y1="1382.889" x2="662.94" y2="1382.889" gradientTransform="matrix(0 403.6631 403.6631 0 -557405.5 -266518)"><stop offset="0" stop-color="#5942c6"/><stop offset=".031" stop-color="#5841c6"/><stop offset=".063" stop-color="#5841c6"/><stop offset=".094" stop-color="#5841c5"/><stop offset=".125" stop-color="#5740c4"/><stop offset=".156" stop-color="#5740c3"/><stop offset=".188" stop-color="#5740c3"/><stop offset=".219" stop-color="#563fc2"/><stop offset=".234" stop-color="#563fc1"/><stop offset=".25" stop-color="#553ec0"/><stop offset=".266" stop-color="#553ec0"/><stop offset=".281" stop-color="#553ebf"/><stop offset=".297" stop-color="#553ebf"/><stop offset=".313" stop-color="#543dbe"/><stop offset=".328" stop-color="#543dbe"/><stop offset=".344" stop-color="#543dbd"/><stop offset=".359" stop-color="#533cbc"/><stop offset=".375" stop-color="#533cbc"/><stop offset=".391" stop-color="#523bbb"/><stop offset=".406" stop-color="#523bba"/><stop offset=".422" stop-color="#523bb9"/><stop offset=".438" stop-color="#513ab9"/><stop offset=".453" stop-color="#513ab8"/><stop offset=".469" stop-color="#5039b7"/><stop offset=".484" stop-color="#5039b6"/><stop offset=".5" stop-color="#4f38b5"/><stop offset=".516" stop-color="#4f38b4"/><stop offset=".531" stop-color="#4e37b3"/><stop offset=".547" stop-color="#4e37b2"/><stop offset=".555" stop-color="#4e37b2"/><stop offset=".563" stop-color="#4d36b1"/><stop offset=".57" stop-color="#4d36b1"/><stop offset=".578" stop-color="#4d36b0"/><stop offset=".586" stop-color="#4c35b0"/><stop offset=".594" stop-color="#4c35af"/><stop offset=".602" stop-color="#4c35af"/><stop offset=".609" stop-color="#4c35ae"/><stop offset=".617" stop-color="#4b34ad"/><stop offset=".625" stop-color="#4b34ad"/><stop offset=".633" stop-color="#4b34ac"/><stop offset=".641" stop-color="#4a33ac"/><stop offset=".648" stop-color="#4a33ab"/><stop offset=".656" stop-color="#4a33ab"/><stop offset=".664" stop-color="#4932aa"/><stop offset=".672" stop-color="#4932a9"/><stop offset=".68" stop-color="#4932a9"/><stop offset=".688" stop-color="#4831a8"/><stop offset=".695" stop-color="#4831a8"/><stop offset=".703" stop-color="#4831a7"/><stop offset=".711" stop-color="#4730a6"/><stop offset=".719" stop-color="#4730a6"/><stop offset=".727" stop-color="#4730a5"/><stop offset=".734" stop-color="#462fa4"/><stop offset=".742" stop-color="#462fa4"/><stop offset=".75" stop-color="#462fa3"/><stop offset=".758" stop-color="#452ea2"/><stop offset=".766" stop-color="#452ea2"/><stop offset=".773" stop-color="#452ea1"/><stop offset=".781" stop-color="#442da0"/><stop offset=".789" stop-color="#442d9f"/><stop offset=".797" stop-color="#432c9f"/><stop offset=".805" stop-color="#432c9e"/><stop offset=".813" stop-color="#432c9d"/><stop offset=".82" stop-color="#422b9d"/><stop offset=".828" stop-color="#422b9c"/><stop offset=".836" stop-color="#412a9b"/><stop offset=".844" stop-color="#412a9a"/><stop offset=".852" stop-color="#412a99"/><stop offset=".859" stop-color="#402999"/><stop offset=".867" stop-color="#402998"/><stop offset=".875" stop-color="#3f2897"/><stop offset=".883" stop-color="#3f2896"/><stop offset=".891" stop-color="#3e2795"/><stop offset=".898" stop-color="#3e2795"/><stop offset=".906" stop-color="#3e2794"/><stop offset=".914" stop-color="#3d2693"/><stop offset=".922" stop-color="#3d2692"/><stop offset=".93" stop-color="#3c2591"/><stop offset=".938" stop-color="#3c2590"/><stop offset=".945" stop-color="#3b248f"/><stop offset=".953" stop-color="#3b248e"/><stop offset=".961" stop-color="#3a238e"/><stop offset=".969" stop-color="#3a238d"/><stop offset=".977" stop-color="#39228c"/><stop offset=".984" stop-color="#39228b"/><stop offset=".992" stop-color="#38218a"/><stop offset="1" stop-color="#382189"/></linearGradient><path d="M906.1 855.9H726v230.6h180.1V855.9z" fill="url(#c)"/></g></g><g transform="translate(-131.363 -839.313)"><defs><path id="d" d="M997.5 867.1c-10.1 7.9-17.9 18.5-23.4 31.7v-39.3h-40.2v174.2h40.2v-66.3c0-11.4 1.4-21.5 4.3-30.2s6.9-15.9 12.2-21.6c5.3-5.7 11.5-10 18.8-12.9 7.3-2.9 15.3-4.3 24.1-4.3h2.3v-42.2c-1.2-.1-2.4-.1-3.5-.1-13.9 0-25.5 3.7-34.8 11"/></defs><clipPath id="e"><use xlink:href="#d" overflow="visible"/></clipPath><g clip-path="url(#e)"><linearGradient id="f" gradientUnits="userSpaceOnUse" x1="662.369" y1="1382.889" x2="662.809" y2="1382.889" gradientTransform="matrix(0 403.6631 403.6631 0 -557236.75 -266518)"><stop offset="0" stop-color="#5942c6"/><stop offset=".063" stop-color="#5841c6"/><stop offset=".125" stop-color="#5841c5"/><stop offset=".156" stop-color="#5740c4"/><stop offset=".188" stop-color="#5740c4"/><stop offset=".219" stop-color="#5740c3"/><stop offset=".25" stop-color="#563fc2"/><stop offset=".281" stop-color="#563fc2"/><stop offset=".313" stop-color="#563fc1"/><stop offset=".344" stop-color="#553ec0"/><stop offset=".375" stop-color="#553ebf"/><stop offset=".406" stop-color="#543dbe"/><stop offset=".438" stop-color="#543dbd"/><stop offset=".453" stop-color="#533cbd"/><stop offset=".469" stop-color="#533cbc"/><stop offset=".484" stop-color="#533cbc"/><stop offset=".5" stop-color="#533cbb"/><stop offset=".516" stop-color="#523bba"/><stop offset=".531" stop-color="#523bba"/><stop offset=".547" stop-color="#523bb9"/><stop offset=".563" stop-color="#513ab9"/><stop offset=".578" stop-color="#513ab8"/><stop offset=".594" stop-color="#513ab7"/><stop offset=".609" stop-color="#5039b7"/><stop offset=".625" stop-color="#5039b6"/><stop offset=".641" stop-color="#5039b5"/><stop offset=".656" stop-color="#4f38b5"/><stop offset=".672" stop-color="#4f38b4"/><stop offset=".688" stop-color="#4e37b3"/><stop offset=".703" stop-color="#4e37b3"/><stop offset=".719" stop-color="#4e37b2"/><stop offset=".734" stop-color="#4d36b1"/><stop offset=".75" stop-color="#4d36b0"/><stop offset=".766" stop-color="#4c35af"/><stop offset=".781" stop-color="#4c35af"/><stop offset=".797" stop-color="#4b34ae"/><stop offset=".813" stop-color="#4b34ad"/><stop offset=".828" stop-color="#4b34ac"/><stop offset=".844" stop-color="#4a33ab"/><stop offset=".859" stop-color="#4a33aa"/><stop offset=".875" stop-color="#4932a9"/><stop offset=".891" stop-color="#4932a8"/><stop offset=".906" stop-color="#4831a7"/><stop offset=".922" stop-color="#4831a6"/><stop offset=".93" stop-color="#4730a6"/><stop offset=".938" stop-color="#4730a5"/><stop offset=".945" stop-color="#4730a5"/><stop offset=".953" stop-color="#462fa4"/><stop offset=".961" stop-color="#462fa4"/><stop offset=".969" stop-color="#462fa3"/><stop offset=".977" stop-color="#462fa3"/><stop offset=".984" stop-color="#452ea2"/><stop offset=".992" stop-color="#452ea2"/><stop offset="1" stop-color="#452ea1"/></linearGradient><path d="M1035.7 856.1H933.8v177.5h101.9V856.1z" fill="url(#f)"/></g></g><g transform="translate(-131.363 -839.313)"><defs><path id="g" d="M1098.7 863.1c-10.3 4.8-19.3 11.4-26.9 19.6-7.6 8.2-13.5 17.9-17.6 28.9-4.2 11-6.3 22.8-6.3 35.3 0 13.6 2.3 26 6.9 37.1 4.6 11.1 10.9 20.6 19 28.5 8 7.9 17.5 14.1 28.4 18.5 10.9 4.4 22.6 6.6 35.1 6.6 16 0 29.8-3 41.4-8.9 11.5-5.9 21.5-13.9 29.8-23.7l-23.4-20.8c-7 6.8-14.2 12-21.4 15.5-7.3 3.5-15.8 5.3-25.7 5.3-13 0-24-3.8-33-11.4-9-7.6-14.7-18.5-17.2-32.8h128c.2-2 .4-3.8.5-5.6.1-1.8.2-3.5.2-5.3 0-12.5-1.8-24.5-5.3-36-3.5-11.4-8.7-21.4-15.7-30-6.9-8.6-15.6-15.4-26.1-20.4-10.4-5.1-22.6-7.6-36.4-7.6-12.5 0-23.9 2.4-34.3 7.2m3.5 38.1c8-8.5 18.2-12.7 30.5-12.7 6.6 0 12.5 1.2 17.6 3.6 5.2 2.4 9.6 5.7 13.4 9.7 3.7 4.1 6.7 8.9 8.9 14.5s3.6 11.6 4.3 18h-89.4c1.8-13.6 6.7-24.6 14.7-33.1"/></defs><clipPath id="h"><use xlink:href="#g" overflow="visible"/></clipPath><g clip-path="url(#h)"><linearGradient id="i" gradientUnits="userSpaceOnUse" x1="662.369" y1="1382.889" x2="662.819" y2="1382.889" gradientTransform="matrix(0 403.6631 403.6631 0 -557089.313 -266518)"><stop offset="0" stop-color="#5942c6"/><stop offset=".063" stop-color="#5841c6"/><stop offset=".094" stop-color="#5841c5"/><stop offset=".125" stop-color="#5841c5"/><stop offset=".156" stop-color="#5740c4"/><stop offset=".188" stop-color="#5740c4"/><stop offset=".219" stop-color="#5740c3"/><stop offset=".25" stop-color="#563fc2"/><stop offset=".281" stop-color="#563fc2"/><stop offset=".313" stop-color="#563fc1"/><stop offset=".344" stop-color="#553ec0"/><stop offset=".375" stop-color="#553ebf"/><stop offset=".406" stop-color="#543dbe"/><stop offset=".422" stop-color="#543dbd"/><stop offset=".438" stop-color="#543dbd"/><stop offset=".453" stop-color="#533cbc"/><stop offset=".469" stop-color="#533cbc"/><stop offset=".484" stop-color="#533cbb"/><stop offset=".5" stop-color="#523bbb"/><stop offset=".516" stop-color="#523bba"/><stop offset=".531" stop-color="#523bb9"/><stop offset=".547" stop-color="#513ab9"/><stop offset=".563" stop-color="#513ab8"/><stop offset=".578" stop-color="#513ab8"/><stop offset=".594" stop-color="#5039b7"/><stop offset=".609" stop-color="#5039b6"/><stop offset=".625" stop-color="#5039b6"/><stop offset=".641" stop-color="#4f38b5"/><stop offset=".656" stop-color="#4f38b4"/><stop offset=".672" stop-color="#4e37b3"/><stop offset=".688" stop-color="#4e37b3"/><stop offset=".703" stop-color="#4e37b2"/><stop offset=".719" stop-color="#4d36b1"/><stop offset=".734" stop-color="#4d36b0"/><stop offset=".75" stop-color="#4c35af"/><stop offset=".766" stop-color="#4c35af"/><stop offset=".781" stop-color="#4b34ae"/><stop offset=".797" stop-color="#4b34ad"/><stop offset=".813" stop-color="#4b34ac"/><stop offset=".828" stop-color="#4a33ab"/><stop offset=".844" stop-color="#4a33aa"/><stop offset=".859" stop-color="#4932a9"/><stop offset=".875" stop-color="#4932a8"/><stop offset=".883" stop-color="#4831a7"/><stop offset=".891" stop-color="#4831a7"/><stop offset=".898" stop-color="#4831a6"/><stop offset=".906" stop-color="#4730a6"/><stop offset=".914" stop-color="#4730a5"/><stop offset=".922" stop-color="#4730a5"/><stop offset=".93" stop-color="#462fa4"/><stop offset=".938" stop-color="#462fa4"/><stop offset=".945" stop-color="#462fa3"/><stop offset=".953" stop-color="#462fa3"/><stop offset=".961" stop-color="#452ea2"/><stop offset=".969" stop-color="#452ea2"/><stop offset=".977" stop-color="#452ea1"/><stop offset=".984" stop-color="#442da1"/><stop offset=".992" stop-color="#442da0"/><stop offset="1" stop-color="#442d9f"/></linearGradient><path d="M1216.5 855.9H1048v181.7h168.5V855.9z" fill="url(#i)"/></g></g><g transform="translate(-131.363 -839.313)"><defs><path id="j" d="M1288.5 863.1c-11.1 4.8-20.7 11.4-28.8 19.8-8.1 8.4-14.4 18-19 29-4.5 11-6.8 22.8-6.8 35.3 0 12.5 2.3 24.2 6.8 35.1 4.5 10.9 10.9 20.4 19 28.7 8.1 8.2 17.6 14.7 28.6 19.5 11 4.7 23 7.1 36 7.1 16.9 0 30.9-3 41.9-9.1 11-6 20.8-13.9 29.4-23.6l-24.1-23.8c-6.4 6.4-13.1 11.6-20.3 15.7-7.1 4.1-15.5 6.1-24.9 6.1-7.7 0-14.7-1.5-21.1-4.5-6.4-3-11.9-7-16.5-12s-8.2-11-10.7-17.8c-2.5-6.8-3.8-14.2-3.8-22.1 0-7.7 1.3-14.9 3.8-21.6 2.5-6.7 6-12.6 10.4-17.6 4.4-5.1 9.7-9.1 15.8-12 6.2-3 12.9-4.5 20.1-4.5 10.1 0 18.6 2 25.6 6.1 6.9 4.1 13.5 9.3 19.6 15.7l24.7-26.7c-8.1-9-17.6-16.3-28.5-21.8-10.9-5.5-24.6-8.2-41.1-8.2-12.9 0-25 2.4-36.1 7.2"/></defs><clipPath id="k"><use xlink:href="#j" overflow="visible"/></clipPath><g clip-path="url(#k)"><linearGradient id="l" gradientUnits="userSpaceOnUse" x1="662.369" y1="1382.889" x2="662.819" y2="1382.889" gradientTransform="matrix(0 403.6631 403.6631 0 -556906.75 -266518)"><stop offset="0" stop-color="#5942c6"/><stop offset=".063" stop-color="#5841c6"/><stop offset=".094" stop-color="#5841c5"/><stop offset=".125" stop-color="#5841c5"/><stop offset=".156" stop-color="#5740c4"/><stop offset=".188" stop-color="#5740c4"/><stop offset=".219" stop-color="#5740c3"/><stop offset=".25" stop-color="#563fc2"/><stop offset=".281" stop-color="#563fc2"/><stop offset=".313" stop-color="#563fc1"/><stop offset=".344" stop-color="#553ec0"/><stop offset=".375" stop-color="#553ebf"/><stop offset=".406" stop-color="#543dbe"/><stop offset=".422" stop-color="#543dbd"/><stop offset=".438" stop-color="#543dbd"/><stop offset=".453" stop-color="#533cbc"/><stop offset=".469" stop-color="#533cbc"/><stop offset=".484" stop-color="#533cbb"/><stop offset=".5" stop-color="#523bbb"/><stop offset=".516" stop-color="#523bba"/><stop offset=".531" stop-color="#523bb9"/><stop offset=".547" stop-color="#513ab9"/><stop offset=".563" stop-color="#513ab8"/><stop offset=".578" stop-color="#513ab8"/><stop offset=".594" stop-color="#5039b7"/><stop offset=".609" stop-color="#5039b6"/><stop offset=".625" stop-color="#5039b6"/><stop offset=".641" stop-color="#4f38b5"/><stop offset=".656" stop-color="#4f38b4"/><stop offset=".672" stop-color="#4e37b3"/><stop offset=".688" stop-color="#4e37b3"/><stop offset=".703" stop-color="#4e37b2"/><stop offset=".719" stop-color="#4d36b1"/><stop offset=".734" stop-color="#4d36b0"/><stop offset=".75" stop-color="#4c35af"/><stop offset=".766" stop-color="#4c35af"/><stop offset=".781" stop-color="#4b34ae"/><stop offset=".797" stop-color="#4b34ad"/><stop offset=".813" stop-color="#4b34ac"/><stop offset=".828" stop-color="#4a33ab"/><stop offset=".844" stop-color="#4a33aa"/><stop offset=".859" stop-color="#4932a9"/><stop offset=".875" stop-color="#4932a8"/><stop offset=".883" stop-color="#4831a7"/><stop offset=".891" stop-color="#4831a7"/><stop offset=".898" stop-color="#4831a6"/><stop offset=".906" stop-color="#4730a6"/><stop offset=".914" stop-color="#4730a5"/><stop offset=".922" stop-color="#4730a5"/><stop offset=".93" stop-color="#462fa4"/><stop offset=".938" stop-color="#462fa4"/><stop offset=".945" stop-color="#462fa3"/><stop offset=".953" stop-color="#462fa3"/><stop offset=".961" stop-color="#452ea2"/><stop offset=".969" stop-color="#452ea2"/><stop offset=".977" stop-color="#452ea1"/><stop offset=".984" stop-color="#442da1"/><stop offset=".992" stop-color="#442da0"/><stop offset="1" stop-color="#442d9f"/></linearGradient><path d="M1395.6 855.9H1234v181.7h161.6V855.9z" fill="url(#l)"/></g></g><g transform="translate(-131.363 -839.313)"><defs><path id="m" d="M1458.5 863.1c-11.3 4.8-21.1 11.4-29.4 19.6-8.2 8.2-14.7 17.9-19.5 29-4.7 11.1-7.1 22.9-7.1 35.5 0 12.5 2.3 24.2 6.9 35.1 4.6 10.9 11.1 20.4 19.3 28.7s18 14.7 29.4 19.5c11.3 4.7 23.6 7.1 36.8 7.1 13.4 0 25.8-2.4 37.3-7.3 11.4-4.8 21.3-11.4 29.5-19.6 8.2-8.2 14.7-17.9 19.5-28.9 4.7-11 7.1-22.8 7.1-35.3 0-12.5-2.3-24.3-6.9-35.3-4.6-11-11.1-20.6-19.3-28.9-8.2-8.2-18-14.7-29.4-19.5-11.3-4.7-23.7-7.1-37.1-7.1-13.4.2-25.8 2.6-37.1 7.4m15.9 135.4c-6.4-3-12-7-16.7-12-4.7-5.1-8.4-11.1-11-18-2.6-6.9-3.9-14.2-3.9-21.9 0-7.7 1.2-14.9 3.6-21.6 2.4-6.7 5.9-12.6 10.5-17.6 4.6-5.1 10.1-9.1 16.6-12 6.4-3 13.6-4.5 21.5-4.5s15 1.5 21.5 4.5c6.4 3 12 7 16.7 12.2 4.7 5.2 8.4 11.2 11 18 2.6 6.8 3.9 14.1 3.9 21.8 0 7.7-1.2 14.9-3.6 21.6-2.4 6.7-5.9 12.6-10.5 17.6-4.6 5.1-10.1 9.1-16.6 12-6.4 3-13.7 4.5-21.8 4.5-7.7-.1-14.7-1.6-21.2-4.6"/></defs><clipPath id="n"><use xlink:href="#m" overflow="visible"/></clipPath><g clip-path="url(#n)"><linearGradient id="o" gradientUnits="userSpaceOnUse" x1="662.369" y1="1382.889" x2="662.819" y2="1382.889" gradientTransform="matrix(0 403.6631 403.6631 0 -556726.125 -266518)"><stop offset="0" stop-color="#5942c6"/><stop offset=".063" stop-color="#5841c6"/><stop offset=".094" stop-color="#5841c5"/><stop offset=".125" stop-color="#5841c5"/><stop offset=".156" stop-color="#5740c4"/><stop offset=".188" stop-color="#5740c4"/><stop offset=".219" stop-color="#5740c3"/><stop offset=".25" stop-color="#563fc2"/><stop offset=".281" stop-color="#563fc2"/><stop offset=".313" stop-color="#563fc1"/><stop offset=".344" stop-color="#553ec0"/><stop offset=".375" stop-color="#553ebf"/><stop offset=".406" stop-color="#543dbe"/><stop offset=".422" stop-color="#543dbd"/><stop offset=".438" stop-color="#543dbd"/><stop offset=".453" stop-color="#533cbc"/><stop offset=".469" stop-color="#533cbc"/><stop offset=".484" stop-color="#533cbb"/><stop offset=".5" stop-color="#523bbb"/><stop offset=".516" stop-color="#523bba"/><stop offset=".531" stop-color="#523bb9"/><stop offset=".547" stop-color="#513ab9"/><stop offset=".563" stop-color="#513ab8"/><stop offset=".578" stop-color="#513ab8"/><stop offset=".594" stop-color="#5039b7"/><stop offset=".609" stop-color="#5039b6"/><stop offset=".625" stop-color="#5039b6"/><stop offset=".641" stop-color="#4f38b5"/><stop offset=".656" stop-color="#4f38b4"/><stop offset=".672" stop-color="#4e37b3"/><stop offset=".688" stop-color="#4e37b3"/><stop offset=".703" stop-color="#4e37b2"/><stop offset=".719" stop-color="#4d36b1"/><stop offset=".734" stop-color="#4d36b0"/><stop offset=".75" stop-color="#4c35af"/><stop offset=".766" stop-color="#4c35af"/><stop offset=".781" stop-color="#4b34ae"/><stop offset=".797" stop-color="#4b34ad"/><stop offset=".813" stop-color="#4b34ac"/><stop offset=".828" stop-color="#4a33ab"/><stop offset=".844" stop-color="#4a33aa"/><stop offset=".859" stop-color="#4932a9"/><stop offset=".875" stop-color="#4932a8"/><stop offset=".883" stop-color="#4831a7"/><stop offset=".891" stop-color="#4831a7"/><stop offset=".898" stop-color="#4831a6"/><stop offset=".906" stop-color="#4730a6"/><stop offset=".914" stop-color="#4730a5"/><stop offset=".922" stop-color="#4730a5"/><stop offset=".93" stop-color="#462fa4"/><stop offset=".938" stop-color="#462fa4"/><stop offset=".945" stop-color="#462fa3"/><stop offset=".953" stop-color="#462fa3"/><stop offset=".961" stop-color="#452ea2"/><stop offset=".969" stop-color="#452ea2"/><stop offset=".977" stop-color="#452ea1"/><stop offset=".984" stop-color="#442da1"/><stop offset=".992" stop-color="#442da0"/><stop offset="1" stop-color="#442d9f"/></linearGradient><path d="M1588.3 855.9h-185.7v181.7h185.7V855.9z" fill="url(#o)"/></g></g><g transform="translate(-131.363 -839.313)"><defs><path id="p" d="M1657.7 861.5c-9.6 3.7-18 9.1-25.4 16.2-7.4 7-13.3 15.6-17.6 25.7-4.4 10.1-6.6 21.7-6.6 34.6 0 13 2.2 24.5 6.6 34.6 4.4 10.1 10.3 18.7 17.6 25.7 7.4 7 15.8 12.4 25.2 16 9.5 3.6 19.3 5.4 29.7 5.4 14.3 0 26.3-3 35.9-9 9.7-6 18.1-13.8 25.4-23.3v13.6c0 17.7-4.7 31-14.2 40.1-9.5 9.1-23.1 13.6-40.9 13.6-11.9 0-22.9-1.7-33-4.9-10.1-3.3-19.8-7.8-29-13.5l-14.8 30c22.9 13.9 48.8 20.8 77.8 20.8 29.9 0 53-7.1 69.3-21.4 16.3-14.3 24.4-36.8 24.4-67.6V859.5h-39.9v26.3c-6.8-8.2-15-15.3-24.6-21.1-9.6-5.9-21.7-8.8-36.4-8.8-10.1 0-19.9 1.8-29.5 5.6m20.8 120.9c-6.1-2.3-11.3-5.6-15.7-9.8-4.4-4.3-7.9-9.3-10.6-15.2-2.6-5.9-4-12.4-4-19.7s1.3-13.8 3.8-19.6c2.5-5.9 6-10.9 10.6-15.1 4.5-4.1 9.7-7.4 15.7-9.7 5.9-2.3 12.4-3.4 19.5-3.4 6.8 0 13.4 1.1 19.6 3.4 6.3 2.3 11.7 5.5 16.3 9.7 4.6 4.1 8.3 9.2 11 15.2 2.8 6 4.1 12.6 4.1 19.8 0 7.2-1.4 13.7-4.1 19.5s-6.4 10.8-11 15.1c-4.6 4.3-10.1 7.5-16.3 9.8-6.3 2.3-12.8 3.4-19.6 3.4-6.9 0-13.3-1.1-19.3-3.4"/></defs><clipPath id="q"><use xlink:href="#p" overflow="visible"/></clipPath><g clip-path="url(#q)"><linearGradient id="r" gradientUnits="userSpaceOnUse" x1="662.369" y1="1382.889" x2="662.942" y2="1382.889" gradientTransform="matrix(0 403.6631 403.6631 0 -556523.438 -266518)"><stop offset="0" stop-color="#5942c6"/><stop offset=".031" stop-color="#5841c6"/><stop offset=".063" stop-color="#5841c6"/><stop offset=".094" stop-color="#5841c5"/><stop offset=".125" stop-color="#5740c4"/><stop offset=".156" stop-color="#5740c3"/><stop offset=".188" stop-color="#5740c3"/><stop offset=".219" stop-color="#563fc2"/><stop offset=".234" stop-color="#563fc1"/><stop offset=".25" stop-color="#553ec0"/><stop offset=".266" stop-color="#553ec0"/><stop offset=".281" stop-color="#553ebf"/><stop offset=".297" stop-color="#553ebf"/><stop offset=".313" stop-color="#543dbe"/><stop offset=".328" stop-color="#543dbe"/><stop offset=".344" stop-color="#543dbd"/><stop offset=".359" stop-color="#533cbc"/><stop offset=".375" stop-color="#533cbc"/><stop offset=".391" stop-color="#523bbb"/><stop offset=".406" stop-color="#523bba"/><stop offset=".422" stop-color="#523bb9"/><stop offset=".438" stop-color="#513ab9"/><stop offset=".453" stop-color="#513ab8"/><stop offset=".469" stop-color="#5039b7"/><stop offset=".484" stop-color="#5039b6"/><stop offset=".5" stop-color="#4f38b5"/><stop offset=".516" stop-color="#4f38b4"/><stop offset=".531" stop-color="#4e37b3"/><stop offset=".547" stop-color="#4e37b2"/><stop offset=".555" stop-color="#4e37b2"/><stop offset=".563" stop-color="#4d36b1"/><stop offset=".57" stop-color="#4d36b1"/><stop offset=".578" stop-color="#4d36b0"/><stop offset=".586" stop-color="#4c35b0"/><stop offset=".594" stop-color="#4c35af"/><stop offset=".602" stop-color="#4c35ae"/><stop offset=".609" stop-color="#4c35ae"/><stop offset=".617" stop-color="#4b34ad"/><stop offset=".625" stop-color="#4b34ad"/><stop offset=".633" stop-color="#4b34ac"/><stop offset=".641" stop-color="#4a33ac"/><stop offset=".648" stop-color="#4a33ab"/><stop offset=".656" stop-color="#4a33aa"/><stop offset=".664" stop-color="#4932aa"/><stop offset=".672" stop-color="#4932a9"/><stop offset=".68" stop-color="#4932a9"/><stop offset=".688" stop-color="#4831a8"/><stop offset=".695" stop-color="#4831a7"/><stop offset=".703" stop-color="#4831a7"/><stop offset=".711" stop-color="#4730a6"/><stop offset=".719" stop-color="#4730a5"/><stop offset=".727" stop-color="#4730a5"/><stop offset=".734" stop-color="#462fa4"/><stop offset=".742" stop-color="#462fa3"/><stop offset=".75" stop-color="#462fa3"/><stop offset=".758" stop-color="#452ea2"/><stop offset=".766" stop-color="#452ea1"/><stop offset=".773" stop-color="#452ea1"/><stop offset=".781" stop-color="#442da0"/><stop offset=".789" stop-color="#442d9f"/><stop offset=".797" stop-color="#432c9f"/><stop offset=".805" stop-color="#432c9e"/><stop offset=".813" stop-color="#432c9d"/><stop offset=".82" stop-color="#422b9c"/><stop offset=".828" stop-color="#422b9c"/><stop offset=".836" stop-color="#412a9b"/><stop offset=".844" stop-color="#412a9a"/><stop offset=".852" stop-color="#402999"/><stop offset=".859" stop-color="#402998"/><stop offset=".867" stop-color="#402998"/><stop offset=".875" stop-color="#3f2897"/><stop offset=".883" stop-color="#3f2896"/><stop offset=".891" stop-color="#3e2795"/><stop offset=".898" stop-color="#3e2794"/><stop offset=".906" stop-color="#3d2693"/><stop offset=".914" stop-color="#3d2693"/><stop offset=".922" stop-color="#3c2592"/><stop offset=".93" stop-color="#3c2591"/><stop offset=".938" stop-color="#3c2590"/><stop offset=".945" stop-color="#3b248f"/><stop offset=".953" stop-color="#3b248e"/><stop offset=".961" stop-color="#3a238d"/><stop offset=".969" stop-color="#3a238c"/><stop offset=".977" stop-color="#39228b"/><stop offset=".984" stop-color="#39228a"/><stop offset=".992" stop-color="#382189"/><stop offset="1" stop-color="#382189"/></linearGradient><path d="M1788.1 855.9H1608v231.2h180.1V855.9z" fill="url(#r)"/></g></g><g transform="translate(-131.363 -839.313)"><defs><path id="s" d="M131.4 954.7c155.1 168 251.5 148.6 304.2 52.7-17 3.5-35.1 1.6-53.5-4.1-72-22-147.9-100.5-172.1-127.3l-78.6 78.7z"/></defs><clipPath id="t"><use xlink:href="#s" overflow="visible"/></clipPath><g clip-path="url(#t)"><linearGradient id="u" gradientUnits="userSpaceOnUse" x1="660.518" y1="1382.567" x2="661.664" y2="1382.567" gradientTransform="scale(340.7934 -340.7934) rotate(-35.538 -1830.74 1719.975)"><stop offset="0" stop-color="#5a43c9"/><stop offset=".125" stop-color="#5a43c9"/><stop offset=".188" stop-color="#5a43c9"/><stop offset=".25" stop-color="#5a43c8"/><stop offset=".281" stop-color="#5942c8"/><stop offset=".313" stop-color="#5942c7"/><stop offset=".328" stop-color="#5841c6"/><stop offset=".344" stop-color="#5841c5"/><stop offset=".359" stop-color="#5841c5"/><stop offset=".375" stop-color="#5740c4"/><stop offset=".391" stop-color="#5740c3"/><stop offset=".406" stop-color="#5740c2"/><stop offset=".422" stop-color="#563fc2"/><stop offset=".43" stop-color="#563fc1"/><stop offset=".438" stop-color="#553ec0"/><stop offset=".445" stop-color="#553ec0"/><stop offset=".453" stop-color="#553ebf"/><stop offset=".461" stop-color="#543dbf"/><stop offset=".469" stop-color="#543dbe"/><stop offset=".477" stop-color="#543dbd"/><stop offset=".484" stop-color="#533cbd"/><stop offset=".492" stop-color="#533cbc"/><stop offset=".5" stop-color="#533cbb"/><stop offset=".508" stop-color="#523bbb"/><stop offset=".516" stop-color="#523bba"/><stop offset=".523" stop-color="#523bb9"/><stop offset=".531" stop-color="#513ab8"/><stop offset=".539" stop-color="#513ab8"/><stop offset=".547" stop-color="#5039b7"/><stop offset=".555" stop-color="#5039b6"/><stop offset=".563" stop-color="#4f38b5"/><stop offset=".57" stop-color="#4f38b4"/><stop offset=".578" stop-color="#4e37b3"/><stop offset=".586" stop-color="#4e37b2"/><stop offset=".59" stop-color="#4d36b1"/><stop offset=".594" stop-color="#4d36b1"/><stop offset=".598" stop-color="#4d36b0"/><stop offset=".602" stop-color="#4c35b0"/><stop offset=".606" stop-color="#4c35af"/><stop offset=".609" stop-color="#4c35ae"/><stop offset=".613" stop-color="#4c35ae"/><stop offset=".617" stop-color="#4b34ad"/><stop offset=".621" stop-color="#4b34ad"/><stop offset=".625" stop-color="#4b34ac"/><stop offset=".629" stop-color="#4a33ac"/><stop offset=".633" stop-color="#4a33ab"/><stop offset=".637" stop-color="#4a33aa"/><stop offset=".641" stop-color="#4932aa"/><stop offset=".644" stop-color="#4932a9"/><stop offset=".648" stop-color="#4932a9"/><stop offset=".652" stop-color="#4831a8"/><stop offset=".656" stop-color="#4831a7"/><stop offset=".66" stop-color="#4831a7"/><stop offset=".664" stop-color="#4730a6"/><stop offset=".668" stop-color="#4730a5"/><stop offset=".672" stop-color="#4730a5"/><stop offset=".676" stop-color="#462fa4"/><stop offset=".68" stop-color="#462fa3"/><stop offset=".684" stop-color="#462fa3"/><stop offset=".688" stop-color="#452ea2"/><stop offset=".691" stop-color="#452ea1"/><stop offset=".695" stop-color="#442da1"/><stop offset=".699" stop-color="#442da0"/><stop offset=".703" stop-color="#442d9f"/><stop offset=".707" stop-color="#432c9e"/><stop offset=".711" stop-color="#432c9e"/><stop offset=".715" stop-color="#432c9d"/><stop offset=".719" stop-color="#422b9c"/><stop offset=".723" stop-color="#422b9b"/><stop offset=".727" stop-color="#412a9b"/><stop offset=".731" stop-color="#412a9a"/><stop offset=".734" stop-color="#402999"/><stop offset=".738" stop-color="#402998"/><stop offset=".742" stop-color="#402998"/><stop offset=".746" stop-color="#3f2897"/><stop offset=".75" stop-color="#3f2896"/><stop offset=".754" stop-color="#3e2795"/><stop offset=".758" stop-color="#3e2794"/><stop offset=".762" stop-color="#3d2693"/><stop offset=".766" stop-color="#3d2692"/><stop offset=".769" stop-color="#3c2592"/><stop offset=".773" stop-color="#3c2591"/><stop offset=".777" stop-color="#3c2590"/><stop offset=".781" stop-color="#3b248f"/><stop offset=".785" stop-color="#3b248e"/><stop offset=".789" stop-color="#3a238d"/><stop offset=".793" stop-color="#3a238c"/><stop offset=".797" stop-color="#39228b"/><stop offset=".801" stop-color="#39228a"/><stop offset=".805" stop-color="#382189"/><stop offset=".809" stop-color="#382188"/><stop offset=".813" stop-color="#372087"/><stop offset=".816" stop-color="#372086"/><stop offset=".82" stop-color="#361f85"/><stop offset=".824" stop-color="#351e84"/><stop offset=".828" stop-color="#351e83"/><stop offset=".832" stop-color="#341d82"/><stop offset=".836" stop-color="#341d81"/><stop offset=".84" stop-color="#331c80"/><stop offset=".844" stop-color="#331c7f"/><stop offset=".848" stop-color="#321b7e"/><stop offset=".852" stop-color="#321b7d"/><stop offset=".856" stop-color="#311a7c"/><stop offset=".859" stop-color="#30197b"/><stop offset=".863" stop-color="#30197a"/><stop offset=".867" stop-color="#2f1879"/><stop offset=".871" stop-color="#2f1878"/><stop offset=".875" stop-color="#2e1777"/><stop offset=".879" stop-color="#2d1676"/><stop offset=".883" stop-color="#2d1674"/><stop offset=".887" stop-color="#2c1573"/><stop offset=".891" stop-color="#2c1572"/><stop offset=".894" stop-color="#2b1471"/><stop offset=".898" stop-color="#2a1370"/><stop offset=".902" stop-color="#2a136f"/><stop offset=".906" stop-color="#29126d"/><stop offset=".91" stop-color="#28116c"/><stop offset=".914" stop-color="#28116b"/><stop offset=".918" stop-color="#27106a"/><stop offset=".922" stop-color="#260f68"/><stop offset=".926" stop-color="#260f67"/><stop offset=".93" stop-color="#250e66"/><stop offset=".934" stop-color="#240d65"/><stop offset=".938" stop-color="#240d63"/><stop offset=".941" stop-color="#230c62"/><stop offset=".945" stop-color="#220b61"/><stop offset=".953" stop-color="#220b60"/><stop offset=".969" stop-color="#220b60"/><stop offset="1" stop-color="#220b60"/></linearGradient><path d="M234.1 732.2L14.7 1039.4l318.1 227.2 219.4-307.2-318.1-227.2z" fill="url(#u)"/></g></g><g transform="translate(-131.363 -839.313)"><defs><path id="v" d="M340.4 912.2c17-3.5 35.1-1.6 53.5 4.1 72.1 22 147.9 100.5 172.2 127.2l78.6-78.6c-82.5-89.4-148.4-125.7-199.9-125.7-45.5.1-79.7 28.2-104.4 73"/></defs><clipPath id="w"><use xlink:href="#v" overflow="visible"/></clipPath><g clip-path="url(#w)"><linearGradient id="x" gradientUnits="userSpaceOnUse" x1="662.294" y1="1385.769" x2="663.369" y2="1385.769" gradientTransform="scale(-339.7855 339.7855) rotate(-29.12 -2331.593 1973.018)"><stop offset="0" stop-color="#a16bd9"/><stop offset=".031" stop-color="#a16bd9"/><stop offset=".063" stop-color="#a06ad9"/><stop offset=".078" stop-color="#9f6ad9"/><stop offset=".094" stop-color="#9f69d9"/><stop offset=".109" stop-color="#9e69d9"/><stop offset=".125" stop-color="#9e68d9"/><stop offset=".141" stop-color="#9d68d9"/><stop offset=".156" stop-color="#9c67d9"/><stop offset=".172" stop-color="#9c66d8"/><stop offset=".188" stop-color="#9b66d8"/><stop offset=".203" stop-color="#9a65d8"/><stop offset=".219" stop-color="#9a65d8"/><stop offset=".234" stop-color="#9964d8"/><stop offset=".25" stop-color="#9863d8"/><stop offset=".266" stop-color="#9863d8"/><stop offset=".281" stop-color="#9762d8"/><stop offset=".297" stop-color="#9661d8"/><stop offset=".313" stop-color="#9561d8"/><stop offset=".328" stop-color="#9460d8"/><stop offset=".344" stop-color="#945fd8"/><stop offset=".359" stop-color="#935ed8"/><stop offset=".375" stop-color="#925ed8"/><stop offset=".391" stop-color="#915dd7"/><stop offset=".406" stop-color="#905cd7"/><stop offset=".422" stop-color="#8f5bd7"/><stop offset=".438" stop-color="#8e5ad7"/><stop offset=".453" stop-color="#8d5ad7"/><stop offset=".469" stop-color="#8d59d7"/><stop offset=".484" stop-color="#8c58d7"/><stop offset=".5" stop-color="#8b57d7"/><stop offset=".516" stop-color="#8a56d7"/><stop offset=".531" stop-color="#8956d7"/><stop offset=".547" stop-color="#8855d7"/><stop offset=".563" stop-color="#8754d6"/><stop offset=".578" stop-color="#8653d6"/><stop offset=".594" stop-color="#8552d6"/><stop offset=".609" stop-color="#8451d6"/><stop offset=".617" stop-color="#8351d6"/><stop offset=".625" stop-color="#8350d6"/><stop offset=".633" stop-color="#8250d6"/><stop offset=".641" stop-color="#824fd6"/><stop offset=".648" stop-color="#814fd6"/><stop offset=".656" stop-color="#814ed6"/><stop offset=".664" stop-color="#804ed6"/><stop offset=".672" stop-color="#804dd6"/><stop offset=".68" stop-color="#7f4dd6"/><stop offset=".688" stop-color="#7f4dd6"/><stop offset=".695" stop-color="#7e4cd6"/><stop offset=".703" stop-color="#7e4cd6"/><stop offset=".711" stop-color="#7d4bd6"/><stop offset=".719" stop-color="#7c4bd5"/><stop offset=".727" stop-color="#7c4ad5"/><stop offset=".734" stop-color="#7b4ad5"/><stop offset=".742" stop-color="#7b49d5"/><stop offset=".75" stop-color="#7a49d5"/><stop offset=".758" stop-color="#7a48d5"/><stop offset=".766" stop-color="#7948d5"/><stop offset=".773" stop-color="#7947d5"/><stop offset=".781" stop-color="#7847d5"/><stop offset=".789" stop-color="#7846d5"/><stop offset=".797" stop-color="#7746d5"/><stop offset=".805" stop-color="#7746d5"/><stop offset=".813" stop-color="#7645d5"/><stop offset=".82" stop-color="#7645d5"/><stop offset=".828" stop-color="#7544d5"/><stop offset=".836" stop-color="#7444d5"/><stop offset=".844" stop-color="#7443d5"/><stop offset=".852" stop-color="#7343d5"/><stop offset=".859" stop-color="#7342d5"/><stop offset=".867" stop-color="#7242d5"/><stop offset=".875" stop-color="#7241d4"/><stop offset=".883" stop-color="#7141d4"/><stop offset=".891" stop-color="#7140d4"/><stop offset=".898" stop-color="#7040d4"/><stop offset=".906" stop-color="#6f3fd4"/><stop offset=".914" stop-color="#6f3fd4"/><stop offset=".922" stop-color="#6e3ed4"/><stop offset=".93" stop-color="#6e3ed4"/><stop offset=".938" stop-color="#6d3dd4"/><stop offset="1" stop-color="#6d3dd4"/></linearGradient><path d="M572.5 1172.9l158.9-285.2-319-177.7-158.9 285.2 319 177.7z" fill="url(#x)"/></g></g></svg>