<svg width="69" height="69" viewBox="0 0 369 369" fill="none" xmlns="http://www.w3.org/2000/svg">
  <circle id="logo-outer-circle" cx="184.5" cy="184.5" r="154.5" fill="#e94343"></circle>
  <circle id="logo-inner-circle" cx="184.5" cy="184.5" r="177" stroke="#e94343" stroke-width="15"></circle>
  <path id="logo-i" d="M118.296 115.24C114.2 115.24 111.128 114.088 109.08 111.784C107.032 109.48 106.008 106.536 106.008 102.952C106.008 98.856 107.224 95.464 109.656 92.776C112.216 90.088 115.672 88.744 120.024 88.744C124.376 88.744 127.576 89.896 129.624 92.2C131.672 94.504 132.696 97.448 132.696 101.032C132.696 105.384 131.416 108.84 128.856 111.4C126.424 113.96 122.968 115.24 118.488 115.24H118.296ZM110.616 149.224L96.024 145.768V135.592L125.784 131.944H126.168L130.584 135.4V230.056L145.944 231.592V241H95.064V231.592L110.616 229.864V149.224Z" fill="white"></path>
  <path id="logo-x" d="M176.142 228.381L213.983 189.73L176.142 151.079L190.723 136.498L228.449 175.033L266.29 136.498L280.871 151.079L242.914 189.73L280.871 228.381L266.29 242.962L228.449 204.542L190.723 242.962L176.142 228.381Z" fill="white"></path>
</svg>