<svg xmlns:vectornator="http://vectornator.io" xmlns="http://www.w3.org/2000/svg" viewBox="0 0 1024 1024" fill-rule="evenodd" clip-rule="evenodd" stroke-linecap="round" stroke-linejoin="round"><path d="M506.236 1002.67L81.373 757.374v-490.59L506.236 21.489 931.1 266.784v490.59l-116.943 67.517-307.921 177.779z" fill="#6dd3ce" vectornator:layerName="Layer 3"/><path d="M691.507 636.474c3.56-1.187 7.49-.891 11.071-1.607 3.122-.625 6.589-.358 9.821-.358 5.316 0 9.788 1.241 14.82 2.679 6.929 1.979 12.237 3.308 17.321 8.392.673.673 2.114 1.822 2.321 2.857.259 1.293.278 2.639.536 3.929.35 1.75.906 4.037.535 5.892-.352 1.762-6.785 5.223-8.392 6.428-5.407 4.056-9.174 8.702-8.035 15.535.446 2.679.264 4.907 2.321 6.964 10.506 10.506 20.693 16.065 33.749 8.231 6.439-3.863 16.811-7.645 21.352-13.321 3.1-3.875 10.056-15.549 10.924-20.758.869-5.213-1.487-12.293-2.495-17.334-6.384-31.919-50.711-37.171-77.993-37.171-5.518 0-12.113 1.435-17.499.358-2.372-.475-5.774-.548-8.036.357-5.979 2.391-6.054 13.478-4.999 18.749.392 1.962 1.943 3.643 2.321 5.535.241 1.207 1.257 5.182 2.321 5.714 1.32.66 3.654-1.47 4.643-1.964" fill="#53729a" vectornator:layerName="Layer 8"/><g vectornator:layerName="Layer 2" stroke="#000" stroke-width="4.99" fill="#f7a278" stroke-linecap="butt"><path d="M501.379 374.315l-48.417 174.24 236.053 68.432 48.575-178.084-236.211-64.588z"/><path d="M502.516 374.748l-171.754-74.372 248.921 67.681 154.821 70.975-231.988-64.284z"/><path d="M331.809 299.906l-52.192 191.028 174.862 58.197 47.749-173.625-170.419-75.6z"/></g><path d="M280.311 475.609c-1.31-1.925-4.831-3.233-6.433-4.989-1.754-1.923-3.069-4.913-5.056-6.685a206.9 206.9 0 01-15.469-15.293c-3.763-4.125-9.435-7.169-12.534-11.722-3.639-5.348-10.796-1.643-12.57 2.731-1.604 3.955.951 7.414.862 11.311-.155 6.811 2.365 13.558 3.676 20.281.924 4.737 1.428 10.178 3.563 14.536 1.675 3.419 6.73 13.724 6.084 17.124-.198 1.042-1.98 2.446-2.699 3.102-3.202 2.921-7.165 8.866-8.759 12.796-1.629 4.018-5.321 7.533-6.738 11.673-1.846 5.393-6.017 10.035-7.748 15.398-3.795 11.756-8.028 22.576-7.907 35.252.058 6.085 4.061 11.997 4.118 17.955.073 7.708 3.709 16.583 7.013 23.326 1.343 2.741 2.922 6.541 4.96 8.776.298.327 4.229 4.716 4.224 4.719-1.271.865-12.785-.321-14.925-.728-4.572-.87-9.321.761-13.983.655-10.261-.233-17.304 4.985-21.108 14.365-.955 2.355-2.542 5.573-1.257 8.196 3.489 7.12 11.04 7.522 18.195 8.882 16.361 3.111 31.595 1.086 47.93-1.733 5.947-1.026 14.174-5.526 20.171-3.095 6.079 2.466 11.84 6.77 18.361 8.01.967.184 5.875 1.554 6.065 2.961.216 1.61-3.239 4.587-3.889 6.19-3.197 7.884 1.36 11.65 8.437 14.257 3.791 1.397 8.687 1.615 12.613 1.796 7.057.324 13.804 1.61 20.795 1.543 11.909-.113 23.673.877 35.706.763 7.471-.071 14.683-1.128 22.096-2.126 6.851-.923 14.53-1.589 21.403-1.655 3.531-.033 7.31-1.731 10.715-2.482 3.043-.671 6.205-.65 9.276-1.249 9.044-1.764 17.264-6.416 25.152-10.281 1.996-.979 10.477-9.061 10.768-9.1.178-.024 2.659 1.6 3.614 1.591 4.661-.045 9.408.165 14.108.272 8.586.195 16.593-2.863 24.683-4.647 6.395-1.41 14.123-1.784 20.102-4.312 3.772-1.596 9.058-4.007 12.957-4.767.023-.005 12.051 10.987 13.584 11.608 1.699.689 39.436-5.161 50.143-12.447 2.914-1.984 4.474.727 6.402-2.721 5.919-10.592-133.742-33.924-134.328-41.959-.538-7.372-14.955-64.483-15.546-64.598-1.526-.298 6.389-9.714 7.302-12.541 1.707-5.289 18.12-19.449 20.315-24.546 2.595-6.027 11.975-16.919 8.636-18.273-3.771-1.529-18.061.137-22.106.262-7.655.236-15.168 2.231-22.663 3.525-5.827 1.005-11.779 1.233-17.624 2.373-4.124.805-8.957 3.009-13.207 2.912-1.28-.029-4.024-3.214-5.553-4.068-3.544-1.981-5.578-5.211-8.835-7.404-3.643-2.454-7.079-5.066-10.58-7.736-14.928-11.384-32.939-16.735-51.426-17.911-13.362-.85-27.068.016-40.259 2.589-3.648.711-10.414 1.938-13.955 3.674-1.758.861-3.433 1.576-5.024 2.659-.346.236-1.79 1.091-1.848 1.005z" fill="#53729a" vectornator:layerName="Layer 6"/><g vectornator:layerName="Layer 9"><path d="M393.341 613.699c2.498.108 5.018-.116 7.482-.543" fill="#53729a"/><path d="M276.381 823.584c7.382 1.519 14.774 2.774 22.17 4.296m-20.209-281.172c-.365-.09 5.972-.708 7.67-1.352 3.364-1.278 5.94-3.876 8.78-5.852.663-.461 1.1-2.104 1.796-2.407.589-.256.382 2.941.301 3.389-.326 1.817 1.336 5.032 1.978 6.721 1.065 2.805 3.139 3.485 5.509 4.778.247.135 2.002.291 2.056.369.26.374-12.431 31.269-26.182 28.499-6.002-1.209-7.501-20.012-5.225-25.797.549-1.393 4.336-8.097 3.317-8.348z" fill="#f1beca"/></g><path stroke="#000" stroke-width="4.99" d="M456.987 549.994l13.876 66.172 229.27 64.051-11.173-63.157-231.973-67.066z" fill="#f7a278" stroke-linecap="butt" vectornator:layerName="Layer 7"/><g vectornator:layerName="Layer 4"><path stroke="#000" stroke-width="3.99" d="M415.94 502.63c17.484-3.192 34.884-6.893 52.454-9.576 38.458-5.874 22.462 10.026 5.888 33.043-9.322 12.946-23.213 28.042-26.621 32.552m-167.338-82.917c28.603-14.301 72.89-9.886 89.272-4.823 12.374 3.825 38.021 19.123 45.445 31.721m-172.714.145c-3.352-6.544-9.591-28.259-11.241-35.478-1.15-5.028-5.193-27.863-1.587-31.469 4.658-4.658 12.991 2.491 15.961 5.461 10.922 10.922 24.817 24.048 34.718 34.671m-22.174 16.192c-2.166 1.341-12.464 8.719-14.644 10.463-8.785 7.028-15.899 17.937-21.002 28.143-16.403 32.805-17.291 78.272 7.561 107.111 15.724 18.248 49.398 33.918 57.966 35.284" fill="none"/><path stroke="#000" stroke-width="3.99" d="M381.973 659.711c-12.506-1.622-28.782-2.177-42.844-.42-16.802 2.101-33.255 4.867-48.725 12.602-5.606 2.803-10.782 12.507-6.301 18.482 7.766 10.354 72.744 8.52 93.141 5.883 23.513-3.041 77.167.037 97.559-40.747m-247.826-20.162c-13.813 0-32.418-2.208-44.104 7.141-5.039 4.031-11.175 13.53-5.041 20.162 14.034 15.173 81.091 1.785 84.012-.036m200.778 10.537c27.493 0 50.012-4.07 75.607-12.602m23.577-19.146c-7.697 3.848-35.649 18.869-13.148 28.346 14.589 6.145 45.841-7.071 59.742-14.021m86.553-48.987c30.094 0 76.261-1.514 96.089 24.924 7.845 10.459 13.075 25.715 4.865 39.397-11.744 19.574-31.111 35.37-53.401 24.225-4.605-2.303-10.719-7.357-11.806-12.79-4.522-22.611 36.402-23.73 36.402-40.666m-73.46-4.919c14.148-4.716 62.112-1.208 54.411 21.895M297.152 543.121c1.608 8.04 13.478 12.282 20.333 8.854m-50.832-11.478c4.194 8.388 18.9 5.502 24.924.984.74-.555 5.76-6.139 6.231-5.903.181.09-.835 6.648-.656 7.543" fill="none"/><path stroke="#000" stroke-width="3.99" d="M278.459 546.4c-1.938 4.733-4.442 9.492-4.656 14.729-1.537 37.543 25.547 14.081 32.378-6.485" fill="none"/><path d="M354.584 532.807c13.88-.845 36.694 2.823 35.117 23.627-6.868 1.811-13.019-11.588-21.936-13.042-9.283-1.513-28.791 4.057-37.434-4.874 3.736-5.255 9.657-4.358 14.732-5.232m-71.523-5.251c-9.093-4.458-21.727-3.845-30.733-2.279-1.879-2.506-1.184-6.077.562-7.887 1.756-1.822 11.773-2.092 12.751-2.058 13.548.47 19.03 1.958 26 11.668-.314 2.741-.564.373-3.759 2.819m17.643 7.739c-.476-1.428-1.069.074-1.973-.83-1.116-1.116-2.597-10.948-1.263-11.616 2.118-1.058 20.083 3.451 20.083 5.072 0 6.678-8.914 6.152-13.442 7.058"/><path stroke="#000" stroke-width="3.99" d="M446.536 569.673c1.575 13.948-.233 26.626-3.6 38.02-2.924 9.899-12.373 26.997-21.822 33.746" fill="none"/></g></svg>