<svg viewBox="0 0 682 1046" fill="none" stroke-linecap="square" stroke-miterlimit="10" xmlns="http://www.w3.org/2000/svg"><clipPath id="a"><path d="M0 0h682v1046H0V0z"/></clipPath><g clip-path="url(#a)"><path d="M0 0h682v1046H0z"/><path d="M126.215 511.525a8.64 8.64 0 018.64-8.64h173.649a8.64 8.64 0 018.64 8.64v34.561a8.64 8.64 0 01-8.64 8.641H134.856a8.64 8.64 0 01-8.64-8.64z"/><path stroke="#c00" stroke-width="4" stroke-linejoin="round" stroke-linecap="butt" d="M126.215 511.525h0a8.64 8.64 0 018.64-8.64h173.649a8.64 8.64 0 018.64 8.64v34.561a8.64 8.64 0 01-8.64 8.641H134.856a8.64 8.64 0 01-8.64-8.64z"/><path fill="#000" d="M201.786 531.429l1.656-.14q.125 1 .547 1.64.437.64 1.344 1.047.922.39 2.062.39 1 0 1.781-.296.782-.297 1.157-.813.375-.531.375-1.156 0-.625-.375-1.094-.36-.469-1.188-.797-.547-.203-2.39-.64-1.829-.454-2.563-.844-.969-.5-1.437-1.235-.47-.75-.47-1.671 0-1 .579-1.875.578-.891 1.672-1.344 1.11-.453 2.453-.453 1.484 0 2.61.484 1.14.469 1.75 1.406.609.922.656 2.094l-1.688.125q-.14-1.266-.937-1.906-.782-.656-2.313-.656-1.61 0-2.344.593-.734.594-.734 1.422 0 .719.531 1.172.5.469 2.656.969 2.157.484 2.954.844 1.171.53 1.718 1.359.563.828.563 1.906 0 1.063-.61 2.016-.609.937-1.75 1.469-1.14.515-2.578.515-1.812 0-3.047-.531-1.218-.531-1.921-1.594-.688-1.062-.72-2.406zm12.756 8.016l-.188-1.532q.547.14.938.14.547 0 .875-.187.328-.171.547-.5.156-.25.5-1.218.047-.141.14-.407l-3.672-9.687h1.766l2.016 5.594q.39 1.078.703 2.25.281-1.125.672-2.203l2.078-5.641h1.64l-3.687 9.828q-.594 1.61-.922 2.203-.437.813-1 1.188-.562.375-1.344.375-.484 0-1.062-.203zm9.406-3.72v-9.671h1.469v1.375q1.062-1.594 3.078-1.594.875 0 1.61.313.734.312 1.093.828.375.5.516 1.203.093.453.093 1.594v5.953h-1.64v-5.89q0-1-.203-1.485-.188-.5-.672-.797-.485-.297-1.14-.297-1.048 0-1.813.672-.75.656-.75 2.516v5.28h-1.64zm16.688-3.546l1.61.219q-.266 1.656-1.36 2.609-1.078.938-2.672.938-1.984 0-3.187-1.297-1.203-1.297-1.203-3.72 0-1.577.515-2.75.516-1.171 1.579-1.75 1.062-.593 2.312-.593 1.578 0 2.578.797 1 .797 1.281 2.266l-1.593.234q-.235-.969-.813-1.453-.578-.5-1.39-.5-1.235 0-2.016.89-.781.891-.781 2.813 0 1.953.75 2.844.75.875 1.953.875.969 0 1.61-.594.655-.594.827-1.828z"/><path d="M246.217 670.883a8.64 8.64 0 018.64-8.64h173.648a8.64 8.64 0 018.64 8.64v34.562a8.64 8.64 0 01-8.64 8.64H254.857a8.64 8.64 0 01-8.64-8.64z"/><path stroke="#c00" stroke-width="4" stroke-linejoin="round" stroke-linecap="butt" d="M246.217 670.883h0a8.64 8.64 0 018.64-8.64h173.648a8.64 8.64 0 018.64 8.64v34.562a8.64 8.64 0 01-8.64 8.64H254.857a8.64 8.64 0 01-8.64-8.64z"/><path fill="#000" d="M316.248 695.084l5.125-13.36h1.906l5.469 13.36h-2.016l-1.546-4.047h-5.594l-1.469 4.047h-1.875zm3.86-5.484h4.53l-1.406-3.703q-.625-1.688-.937-2.766-.266 1.281-.719 2.547l-1.469 3.922zm9.193 2.593l1.625-.25q.125.97.75 1.5.625.516 1.75.516t1.672-.453q.547-.469.547-1.094 0-.547-.485-.875-.328-.219-1.672-.547-1.812-.468-2.515-.797-.688-.328-1.047-.906-.36-.594-.36-1.312 0-.64.297-1.188.297-.562.813-.922.375-.28 1.031-.468.672-.204 1.422-.204 1.14 0 2 .329.86.328 1.266.89.422.563.578 1.5l-1.61.219q-.109-.75-.64-1.172-.516-.422-1.469-.422-1.14 0-1.625.375-.469.375-.469.875 0 .313.188.578.203.266.64.438.235.094 1.438.422 1.75.453 2.437.75.688.297 1.079.86.39.562.39 1.405 0 .828-.484 1.547-.469.719-1.375 1.125-.906.39-2.047.39-1.875 0-2.875-.78-.984-.782-1.25-2.329zm9.906 6.61l-.187-1.531q.547.14.937.14.547 0 .875-.187.328-.172.547-.5.156-.25.5-1.22.047-.14.14-.405l-3.671-9.688h1.765l2.016 5.594q.39 1.078.703 2.25.281-1.125.672-2.203l2.078-5.64h1.64l-3.687 9.827q-.593 1.61-.922 2.203-.437.813-1 1.188-.562.375-1.343.375-.485 0-1.063-.203zm9.406-3.719v-9.672h1.47v1.375q1.062-1.594 3.077-1.594.875 0 1.61.313.734.312 1.093.828.375.5.516 1.203.094.453.094 1.594v5.953h-1.64v-5.89q0-1-.204-1.485-.187-.5-.672-.797-.484-.297-1.14-.297-1.047 0-1.813.672-.75.656-.75 2.516v5.281h-1.64zm16.689-3.547l1.61.219q-.267 1.656-1.36 2.61-1.078.937-2.672.937-1.985 0-3.188-1.297t-1.203-3.719q0-1.578.516-2.75.515-1.172 1.578-1.75 1.062-.594 2.312-.594 1.579 0 2.579.797 1 .797 1.28 2.266l-1.593.234q-.234-.968-.812-1.453-.579-.5-1.391-.5-1.234 0-2.016.89-.78.891-.78 2.813 0 1.953.75 2.844.75.875 1.952.875.969 0 1.61-.594.656-.593.828-1.828z"/><path d="M368.824 511.525a8.64 8.64 0 018.64-8.64h173.649a8.64 8.64 0 018.64 8.64v34.561a8.64 8.64 0 01-8.64 8.641H377.465a8.64 8.64 0 01-8.64-8.64z"/><path stroke="#c00" stroke-width="4" stroke-linejoin="round" stroke-linecap="butt" d="M368.824 511.525h0a8.64 8.64 0 018.64-8.64h173.649a8.64 8.64 0 018.64 8.64v34.561a8.64 8.64 0 01-8.64 8.641H377.465a8.64 8.64 0 01-8.64-8.64z"/><path fill="#000" d="M443.357 535.726v-13.36h1.781v11.782h6.563v1.578h-8.344zm10.25-11.469v-1.89h1.642v1.89h-1.641zm0 11.469v-9.672h1.642v9.672h-1.641zm4.536 0v-8.406h-1.453v-1.266h1.453v-1.031q0-.97.172-1.453.235-.641.828-1.032.594-.39 1.672-.39.688 0 1.531.156l-.25 1.437q-.5-.093-.953-.093-.75 0-1.062.328-.313.312-.313 1.187v.89h1.89v1.267h-1.89v8.406h-1.625zm8.371-1.469l.235 1.453q-.688.14-1.235.14-.89 0-1.39-.28-.485-.282-.688-.735-.203-.469-.203-1.937v-5.578h-1.203v-1.266h1.203v-2.39l1.625-.985v3.375h1.656v1.266h-1.656v5.671q0 .688.078.891.094.203.281.328.203.11.578.11.266 0 .72-.063zm2.105 1.469v-13.36h1.766v13.36h-1.766zm4.355-6.5q0-3.328 1.782-5.203 1.781-1.891 4.61-1.891 1.843 0 3.327.89 1.485.876 2.266 2.47.781 1.578.781 3.578 0 2.03-.828 3.64-.813 1.594-2.313 2.422-1.5.828-3.25.828-1.875 0-3.359-.906-1.484-.922-2.25-2.5-.766-1.578-.766-3.328zm1.813.015q0 2.422 1.297 3.813 1.297 1.39 3.265 1.39 2 0 3.282-1.406 1.281-1.406 1.281-3.984 0-1.625-.547-2.844-.547-1.219-1.61-1.875-1.062-.672-2.374-.672-1.89 0-3.25 1.297-1.344 1.281-1.344 4.281z"/><path d="M246.218 989.604a8.64 8.64 0 018.64-8.64h173.648a8.64 8.64 0 018.641 8.64v34.561a8.64 8.64 0 01-8.64 8.64h-173.65a8.64 8.64 0 01-8.64-8.64z"/><path stroke="#c00" stroke-width="4" stroke-linejoin="round" stroke-linecap="butt" d="M246.218 989.604h0a8.64 8.64 0 018.64-8.64h173.648a8.64 8.64 0 018.641 8.64v34.561a8.64 8.64 0 01-8.64 8.64h-173.65a8.64 8.64 0 01-8.64-8.64z"/><path fill="#000" d="M282.827 1009.117l1.766.453q-.563 2.172-2 3.328-1.438 1.14-3.532 1.14-2.156 0-3.515-.874-1.344-.89-2.063-2.547-.703-1.672-.703-3.594 0-2.078.797-3.625.797-1.562 2.266-2.36 1.484-.812 3.25-.812 2 0 3.359 1.016 1.375 1.016 1.906 2.875l-1.734.406q-.469-1.453-1.36-2.11-.875-.671-2.203-.671-1.547 0-2.578.734-1.031.735-1.453 1.985-.422 1.234-.422 2.562 0 1.703.5 2.969.5 1.266 1.547 1.906 1.047.625 2.266.625 1.484 0 2.515-.86 1.032-.859 1.391-2.546zm3.13-.156q0-2.688 1.484-3.969 1.25-1.078 3.046-1.078 2 0 3.266 1.312 1.266 1.297 1.266 3.61 0 1.86-.563 2.937-.562 1.063-1.64 1.656-1.063.594-2.329.594-2.03 0-3.28-1.297-1.25-1.312-1.25-3.765zm1.687 0q0 1.86.797 2.797.812.921 2.046.921 1.22 0 2.032-.921.812-.938.812-2.844 0-1.797-.812-2.719-.813-.922-2.032-.922-1.234 0-2.046.922-.797.906-.797 2.766zm9.297 4.843v-9.671h1.469v1.375q1.063-1.594 3.078-1.594.875 0 1.61.312.734.313 1.093.828.375.5.516 1.204.094.453.094 1.593v5.953h-1.641v-5.89q0-1-.203-1.485-.188-.5-.672-.796-.484-.297-1.14-.297-1.047 0-1.813.672-.75.656-.75 2.515v5.281h-1.64zm16.688-3.546l1.61.218q-.266 1.657-1.36 2.61-1.078.937-2.671.937-1.985 0-3.188-1.297t-1.203-3.718q0-1.579.516-2.75.515-1.172 1.578-1.75 1.062-.594 2.312-.594 1.578 0 2.578.797 1 .797 1.282 2.265l-1.594.235q-.235-.969-.813-1.453-.578-.5-1.39-.5-1.235 0-2.016.89-.781.89-.781 2.813 0 1.953.75 2.843.75.875 1.953.875.969 0 1.61-.593.656-.594.827-1.828zm9.344 3.546v-1.421q-1.125 1.64-3.062 1.64-.86 0-1.61-.328-.734-.328-1.093-.828-.36-.5-.5-1.219-.11-.469-.11-1.531v-5.984h1.64v5.359q0 1.281.11 1.734.156.641.656 1.016t1.235.375q.734 0 1.375-.375.656-.39.922-1.031.265-.657.265-1.89v-5.188h1.641v9.671h-1.469zm4.032 0v-9.671h1.469v1.468q.562-1.03 1.031-1.359.485-.328 1.063-.328.828 0 1.687.531l-.562 1.516q-.61-.36-1.203-.36-.547 0-.97.328-.421.329-.609.891-.28.875-.28 1.922v5.063h-1.626zm6.213 0v-9.671h1.469v1.468q.562-1.03 1.03-1.359.485-.328 1.063-.328.828 0 1.688.531l-.563 1.516q-.609-.36-1.203-.36-.547 0-.969.328-.421.329-.609.891-.281.875-.281 1.922v5.063h-1.625zm12.853-3.109l1.688.203q-.407 1.485-1.485 2.313-1.078.812-2.765.812-2.125 0-3.375-1.297-1.235-1.312-1.235-3.672 0-2.453 1.25-3.796 1.266-1.344 3.266-1.344 1.937 0 3.156 1.328 1.235 1.313 1.235 3.703v.438h-7.22q.095 1.593.907 2.453.813.843 2.016.843.906 0 1.547-.468.64-.485 1.015-1.516zm-5.39-2.656h5.406q-.11-1.219-.625-1.828-.781-.953-2.031-.953-1.125 0-1.907.765-.765.75-.843 2.016zm9.14 5.765v-9.671h1.47v1.375q1.062-1.594 3.078-1.594.875 0 1.61.312.733.313 1.093.828.375.5.515 1.204.094.453.094 1.593v5.953h-1.64v-5.89q0-1-.204-1.485-.187-.5-.671-.796-.485-.297-1.141-.297-1.047 0-1.813.672-.75.656-.75 2.515v5.281h-1.64zm13.955-1.468l.234 1.453q-.687.14-1.234.14-.89 0-1.39-.28-.485-.282-.688-.735-.204-.469-.204-1.938v-5.578h-1.203v-1.265h1.203v-2.391l1.625-.984v3.375h1.657v1.265h-1.657v5.672q0 .688.079.89.093.204.28.329.204.11.579.11.266 0 .719-.063zm1.84 1.468v-13.359h9.656v1.578h-7.875v4.094h7.375v1.563h-7.375v4.546h8.187v1.578h-9.969zm12.6 0v-8.406h-1.454v-1.265h1.453v-1.032q0-.968.172-1.453.234-.64.828-1.031.594-.39 1.672-.39.687 0 1.531.156l-.25 1.437q-.5-.094-.953-.094-.75 0-1.062.328-.313.313-.313 1.188v.89h1.89v1.266h-1.89v8.406h-1.625zm4.845 0v-8.406h-1.453v-1.265h1.453v-1.032q0-.968.172-1.453.234-.64.828-1.031.594-.39 1.672-.39.688 0 1.531.156l-.25 1.437q-.5-.094-.953-.094-.75 0-1.062.328-.313.313-.313 1.188v.89h1.89v1.266h-1.89v8.406h-1.625zm11.418-3.109l1.687.203q-.406 1.485-1.484 2.313-1.078.812-2.766.812-2.125 0-3.375-1.297-1.234-1.312-1.234-3.672 0-2.453 1.25-3.796 1.266-1.344 3.266-1.344 1.937 0 3.156 1.328 1.234 1.313 1.234 3.703v.438h-7.219q.094 1.593.907 2.453.812.843 2.015.843.907 0 1.547-.468.64-.485 1.016-1.516zm-5.39-2.656h5.405q-.109-1.219-.625-1.828-.78-.953-2.03-.953-1.126 0-1.907.765-.766.75-.844 2.016zm15.453 2.219l1.61.218q-.266 1.657-1.36 2.61-1.078.937-2.672.937-1.984 0-3.187-1.297-1.203-1.297-1.203-3.718 0-1.579.515-2.75.516-1.172 1.578-1.75 1.063-.594 2.313-.594 1.578 0 2.578.797 1 .797 1.281 2.265l-1.594.235q-.234-.969-.812-1.453-.578-.5-1.39-.5-1.235 0-2.016.89-.782.89-.782 2.813 0 1.953.75 2.843.75.875 1.954.875.968 0 1.609-.593.656-.594.828-1.828zm6.594 2.078l.234 1.453q-.687.14-1.234.14-.89 0-1.39-.28-.485-.282-.688-.735-.203-.469-.203-1.938v-5.578h-1.204v-1.265h1.204v-2.391l1.625-.984v3.375h1.656v1.265h-1.656v5.672q0 .688.078.89.093.204.28.329.204.11.58.11.265 0 .718-.063z"/><path d="M341.681 662.243l-120-107.528"/><path stroke="#000" stroke-linejoin="round" stroke-linecap="butt" d="M341.681 662.243L226.15 558.719"/><path fill="#000" stroke="#000" stroke-linecap="butt" d="M227.252 557.49l-4.482-1.8 2.277 4.26z" fill-rule="evenodd"/><path d="M341.681 662.243l122.614-107.528"/><path stroke="#000" stroke-linejoin="round" stroke-linecap="butt" d="M341.681 662.243L459.784 558.67"/><path fill="#000" stroke="#000" stroke-linecap="butt" d="M460.873 559.913l2.323-4.234-4.5 1.75z" fill-rule="evenodd"/><path d="M11.399 255.47c55.514 10.025 222.99 60.014 333.084 60.15 110.095.135 272.902-49.447 327.483-59.337"/><path stroke="#4a86e8" stroke-linejoin="round" stroke-linecap="butt" stroke-dasharray="4.0,3.0" d="M11.399 255.47c55.514 10.025 222.99 60.014 333.084 60.15 110.095.135 272.902-49.447 327.483-59.337"/><path d="M126.247 16.575a8.64 8.64 0 018.64-8.64h173.648a8.64 8.64 0 018.64 8.64v34.561a8.64 8.64 0 01-8.64 8.64H134.887a8.64 8.64 0 01-8.64-8.64z"/><path stroke="#4a86e8" stroke-width="4" stroke-linejoin="round" stroke-linecap="butt" d="M126.247 16.575h0a8.64 8.64 0 018.64-8.64h173.648a8.64 8.64 0 018.64 8.64v34.561a8.64 8.64 0 01-8.64 8.64H134.887a8.64 8.64 0 01-8.64-8.64z"/><path fill="#000" d="M194.58 40.776v-13.36h2.656l3.157 9.453q.437 1.329.64 1.985.235-.735.703-2.14l3.203-9.298h2.375v13.36h-1.703V29.604l-3.875 11.172h-1.593l-3.86-11.375v11.375h-1.703zm14.775-4.844q0-2.688 1.485-3.969 1.25-1.078 3.047-1.078 2 0 3.265 1.313 1.266 1.296 1.266 3.609 0 1.86-.563 2.937-.562 1.063-1.64 1.657-1.063.593-2.328.593-2.032 0-3.282-1.296-1.25-1.313-1.25-3.766zm1.688 0q0 1.86.797 2.797.812.922 2.047.922 1.218 0 2.03-.922.813-.938.813-2.844 0-1.797-.812-2.719-.813-.922-2.031-.922-1.235 0-2.047.922-.797.907-.797 2.766zm9.297 4.844v-9.672h1.47v1.375q1.062-1.594 3.077-1.594.875 0 1.61.313.734.312 1.093.828.375.5.516 1.203.094.453.094 1.594v5.953h-1.64v-5.891q0-1-.204-1.484-.188-.5-.672-.797-.484-.297-1.14-.297-1.047 0-1.813.672-.75.656-.75 2.515v5.282h-1.64zm16.689-1.188q-.922.766-1.766 1.094-.828.312-1.797.312-1.594 0-2.453-.78-.86-.782-.86-1.985 0-.719.329-1.297.328-.594.843-.938.532-.359 1.188-.546.469-.125 1.453-.25 1.984-.235 2.922-.563.016-.344.016-.422 0-1-.47-1.422-.624-.547-1.874-.547-1.156 0-1.703.407-.547.406-.813 1.422l-1.61-.22q.22-1.015.72-1.64.5-.64 1.453-.984.953-.344 2.187-.344 1.25 0 2.016.297.781.281 1.14.734.375.438.516 1.11.078.422.078 1.515v2.188q0 2.281.11 2.89.109.594.406 1.157h-1.703q-.266-.516-.328-1.188zm-.141-3.672q-.89.375-2.672.625-1.016.14-1.437.328-.422.188-.657.532-.218.343-.218.78 0 .657.5 1.095.5.437 1.453.437.937 0 1.672-.406.75-.422 1.093-1.14.266-.563.266-1.641v-.61zm10.47 4.86v-1.22q-.907 1.438-2.704 1.438-1.156 0-2.125-.64-.968-.64-1.5-1.781-.531-1.141-.531-2.625 0-1.454.484-2.625.485-1.188 1.438-1.813.969-.625 2.172-.625.875 0 1.547.375.687.36 1.109.953v-4.797h1.64v13.36h-1.53zm-5.172-4.828q0 1.859.78 2.78.782.923 1.845.923 1.078 0 1.828-.875.75-.891.75-2.688 0-1.984-.766-2.906-.766-.938-1.89-.938-1.079 0-1.813.891-.734.89-.734 2.813z"/><path d="M221.711 175.73V59.76"/><path stroke="#000" stroke-linejoin="round" stroke-linecap="butt" d="M221.711 175.73V65.76"/><path fill="#000" stroke="#000" stroke-linecap="butt" d="M223.363 65.761l-1.652-4.538-1.651 4.538z" fill-rule="evenodd"/><path d="M368.824 830.244a8.64 8.64 0 018.64-8.64h173.649a8.64 8.64 0 018.64 8.64v34.562a8.64 8.64 0 01-8.64 8.64H377.465a8.64 8.64 0 01-8.64-8.64z"/><path stroke="#c00" stroke-width="4" stroke-linejoin="round" stroke-linecap="butt" d="M368.824 830.244h0a8.64 8.64 0 018.64-8.64h173.649a8.64 8.64 0 018.64 8.64v34.562a8.64 8.64 0 01-8.64 8.64H377.465a8.64 8.64 0 01-8.64-8.64z"/><path fill="#000" d="M442.077 854.445v-13.36h9.657v1.579h-7.875v4.093h7.375v1.563h-7.375v4.547h8.187v1.578h-9.969zm12.6 0v-8.406h-1.453v-1.266h1.453v-1.031q0-.969.172-1.453.234-.64.828-1.032.594-.39 1.672-.39.688 0 1.531.156l-.25 1.438q-.5-.094-.953-.094-.75 0-1.062.328-.313.312-.313 1.187v.891h1.89v1.266h-1.89v8.406h-1.625zm4.846 0v-8.406h-1.453v-1.266h1.453v-1.031q0-.969.172-1.453.235-.64.828-1.032.594-.39 1.672-.39.688 0 1.531.156l-.25 1.438q-.5-.094-.953-.094-.75 0-1.062.328-.313.312-.313 1.187v.891h1.89v1.266h-1.89v8.406h-1.625zm11.418-3.11l1.687.204q-.406 1.484-1.484 2.312-1.078.813-2.766.813-2.125 0-3.375-1.297-1.234-1.313-1.234-3.672 0-2.453 1.25-3.797 1.266-1.344 3.266-1.344 1.937 0 3.156 1.328 1.234 1.313 1.234 3.704v.437h-7.218q.093 1.594.906 2.453.812.844 2.015.844.907 0 1.547-.469.641-.484 1.016-1.515zm-5.39-2.656h5.406q-.11-1.218-.625-1.828-.782-.953-2.032-.953-1.125 0-1.906.766-.766.75-.844 2.015zm15.453 2.22l1.61.218q-.266 1.656-1.36 2.61-1.078.937-2.672.937-1.984 0-3.187-1.297-1.203-1.297-1.203-3.719 0-1.578.515-2.75.516-1.172 1.578-1.75 1.063-.594 2.313-.594 1.578 0 2.578.797 1 .797 1.281 2.266l-1.593.234q-.235-.969-.813-1.453-.578-.5-1.39-.5-1.235 0-2.016.89-.781.891-.781 2.813 0 1.953.75 2.844.75.875 1.953.875.968 0 1.61-.594.655-.594.827-1.828zm6.594 2.077l.234 1.453q-.687.14-1.234.14-.89 0-1.39-.28-.485-.282-.688-.735-.203-.468-.203-1.937v-5.578h-1.203v-1.266h1.203v-2.39l1.625-.985v3.375h1.656v1.266h-1.656v5.672q0 .687.078.89.094.203.281.328.203.11.578.11.266 0 .719-.063z"/><path d="M126.247 830.244a8.64 8.64 0 018.64-8.64h173.648a8.64 8.64 0 018.64 8.64v34.562a8.64 8.64 0 01-8.64 8.64H134.887a8.64 8.64 0 01-8.64-8.64z"/><path stroke="#c00" stroke-width="4" stroke-linejoin="round" stroke-linecap="butt" d="M126.247 830.244h0a8.64 8.64 0 018.64-8.64h173.648a8.64 8.64 0 018.64 8.64v34.562a8.64 8.64 0 01-8.64 8.64H134.887a8.64 8.64 0 01-8.64-8.64z"/><path fill="#000" d="M186.536 849.757l1.765.454q-.562 2.171-2 3.328-1.437 1.14-3.53 1.14-2.157 0-3.516-.875-1.344-.89-2.063-2.547-.703-1.671-.703-3.593 0-2.078.797-3.625.797-1.563 2.265-2.36 1.485-.812 3.25-.812 2 0 3.36 1.015 1.375 1.016 1.906 2.875l-1.734.407q-.469-1.453-1.36-2.11-.875-.672-2.203-.672-1.547 0-2.578.735-1.031.734-1.453 1.984-.422 1.235-.422 2.563 0 1.703.5 2.968.5 1.266 1.547 1.907 1.047.625 2.266.625 1.484 0 2.515-.86 1.031-.86 1.39-2.547zm3.13-.156q0-2.687 1.483-3.969 1.25-1.078 3.047-1.078 2 0 3.266 1.313 1.266 1.297 1.266 3.61 0 1.859-.563 2.937-.562 1.062-1.64 1.656-1.063.594-2.329.594-2.03 0-3.28-1.297-1.25-1.313-1.25-3.766zm1.687 0q0 1.86.796 2.797.813.922 2.047.922 1.22 0 2.032-.922.812-.937.812-2.844 0-1.797-.812-2.718-.813-.922-2.032-.922-1.234 0-2.047.922-.796.906-.796 2.765zm9.297 4.844v-9.672h1.469v1.375q1.062-1.594 3.078-1.594.875 0 1.61.313.734.312 1.093.828.375.5.516 1.203.094.453.094 1.594v5.953h-1.641v-5.89q0-1-.203-1.485-.188-.5-.672-.797-.484-.297-1.14-.297-1.048 0-1.813.672-.75.656-.75 2.516v5.28h-1.64zm16.688-3.547l1.61.219q-.266 1.656-1.36 2.61-1.078.937-2.671.937-1.985 0-3.188-1.297t-1.203-3.719q0-1.578.516-2.75.515-1.172 1.578-1.75 1.062-.594 2.312-.594 1.578 0 2.578.797 1 .797 1.282 2.266l-1.594.234q-.235-.969-.813-1.453-.578-.5-1.39-.5-1.235 0-2.016.89-.781.891-.781 2.813 0 1.953.75 2.844.75.875 1.953.875.969 0 1.61-.594.656-.594.827-1.828zm9.344 3.547v-1.422q-1.125 1.64-3.062 1.64-.86 0-1.61-.327-.734-.329-1.093-.829-.36-.5-.5-1.218-.11-.47-.11-1.532v-5.984h1.64v5.36q0 1.28.11 1.734.156.64.656 1.015.5.375 1.235.375.734 0 1.375-.375.656-.39.922-1.03.265-.657.265-1.891v-5.188h1.64v9.672h-1.468zm4.032 0v-9.672h1.469v1.469q.562-1.031 1.031-1.36.484-.328 1.063-.328.828 0 1.687.532l-.562 1.515q-.61-.36-1.204-.36-.546 0-.968.329-.422.328-.61.89-.28.876-.28 1.922v5.063h-1.626zm6.213 0v-9.672h1.469v1.469q.562-1.031 1.03-1.36.485-.328 1.063-.328.828 0 1.688.532l-.563 1.515q-.61-.36-1.203-.36-.547 0-.969.329-.421.328-.609.89-.281.876-.281 1.922v5.063h-1.625zm12.853-3.11l1.688.204q-.407 1.484-1.485 2.312-1.078.813-2.765.813-2.125 0-3.375-1.297-1.235-1.313-1.235-3.672 0-2.453 1.25-3.797 1.266-1.344 3.266-1.344 1.937 0 3.156 1.328 1.234 1.313 1.234 3.704v.437h-7.218q.093 1.594.906 2.453.812.844 2.016.844.906 0 1.546-.469.641-.484 1.016-1.515zm-5.39-2.656h5.406q-.11-1.218-.625-1.828-.782-.953-2.032-.953-1.125 0-1.906.766-.765.75-.844 2.015zm9.14 5.766v-9.672H255v1.375q1.062-1.594 3.078-1.594.875 0 1.609.313.734.312 1.094.828.375.5.515 1.203.094.453.094 1.594v5.953h-1.64v-5.89q0-1-.204-1.485-.187-.5-.671-.797-.485-.297-1.141-.297-1.047 0-1.813.672-.75.656-.75 2.516v5.28h-1.64zm13.955-1.469l.234 1.453q-.687.14-1.234.14-.891 0-1.391-.28-.484-.282-.687-.735-.204-.468-.204-1.937v-5.578H263v-1.266h1.203v-2.39l1.625-.985v3.375h1.657v1.266h-1.657v5.672q0 .687.079.89.093.203.28.328.204.11.579.11.266 0 .719-.063z"/><path d="M221.46 822.81l120.221-108.725"/><path stroke="#000" stroke-linejoin="round" stroke-linecap="butt" d="M221.46 822.81l115.771-104.7"/><path fill="#000" stroke="#000" stroke-linecap="butt" d="M338.339 719.335l2.258-4.27-4.474 1.82z" fill-rule="evenodd"/><path d="M464.289 821.604L341.675 714.076"/><path stroke="#000" stroke-linejoin="round" stroke-linecap="butt" d="M464.289 821.604L346.186 718.032"/><path fill="#000" stroke="#000" stroke-linecap="butt" d="M347.275 716.79l-4.501-1.75 2.323 4.234z" fill-rule="evenodd"/><path d="M341.682 980.963l122.615-107.527"/><path stroke="#000" stroke-linejoin="round" stroke-linecap="butt" d="M341.682 980.963l118.104-103.571"/><path fill="#000" stroke="#000" stroke-linecap="butt" d="M460.875 878.634l2.322-4.234-4.5 1.75z" fill-rule="evenodd"/><path d="M341.682 980.963L221.714 873.436"/><path stroke="#000" stroke-linejoin="round" stroke-linecap="butt" d="M341.682 980.963l-115.5-103.523"/><path fill="#000" stroke="#000" stroke-linecap="butt" d="M227.284 876.21l-4.481-1.799 2.276 4.26z" fill-rule="evenodd"/><path d="M126.247 352.166a8.64 8.64 0 018.64-8.641h173.648a8.64 8.64 0 018.64 8.64v34.562a8.64 8.64 0 01-8.64 8.64H134.887a8.64 8.64 0 01-8.64-8.64z"/><path stroke="#c00" stroke-width="4" stroke-linejoin="round" stroke-linecap="butt" d="M126.247 352.166h0a8.64 8.64 0 018.64-8.641h173.648a8.64 8.64 0 018.64 8.64v34.562a8.64 8.64 0 01-8.64 8.64H134.887a8.64 8.64 0 01-8.64-8.64z"/><path fill="#000" d="M191.447 376.366v-13.36h5.016q1.53 0 2.453.407.922.406 1.437 1.25.532.844.532 1.766 0 .86-.47 1.625-.452.75-1.39 1.203 1.203.36 1.86 1.219.656.859.656 2.015 0 .938-.406 1.75-.391.797-.985 1.235-.578.437-1.453.671-.875.22-2.156.22h-5.094zm1.781-7.75h2.875q1.188 0 1.688-.14.672-.204 1.015-.672.344-.47.344-1.172 0-.656-.328-1.156-.312-.516-.906-.704-.594-.187-2.031-.187h-2.657v4.031zm0 6.172h3.313q.86 0 1.203-.062.61-.11 1.016-.36.421-.265.687-.75.266-.484.266-1.125 0-.75-.391-1.297-.375-.547-1.062-.765-.672-.235-1.954-.235h-3.078v4.594zm10.522 1.578v-9.672h1.469v1.47q.562-1.032 1.031-1.36.484-.328 1.062-.328.829 0 1.688.53l-.563 1.516q-.609-.359-1.203-.359-.547 0-.968.328-.422.328-.61.89-.281.876-.281 1.923v5.062h-1.625zm12.54-1.187q-.921.765-1.765 1.093-.828.313-1.797.313-1.593 0-2.453-.781-.86-.782-.86-1.985 0-.718.329-1.297.328-.593.844-.937.53-.36 1.187-.547.469-.125 1.453-.25 1.985-.234 2.922-.562.016-.344.016-.422 0-1-.469-1.422-.625-.547-1.875-.547-1.156 0-1.703.406-.547.406-.813 1.422l-1.609-.219q.219-1.015.719-1.64.5-.64 1.453-.985.953-.343 2.187-.343 1.25 0 2.016.296.781.282 1.14.735.376.437.516 1.11.078.421.078 1.515v2.187q0 2.282.11 2.89.11.595.406 1.157h-1.703q-.266-.515-.328-1.187zm-.14-3.672q-.89.375-2.672.625-1.015.14-1.437.328-.422.187-.656.531-.22.344-.22.781 0 .657.5 1.094.5.438 1.454.438.937 0 1.672-.407.75-.421 1.094-1.14.265-.563.265-1.64v-.61zm10.517 1.312l1.609.22q-.266 1.655-1.36 2.608-1.078.938-2.671.938-1.985 0-3.188-1.297t-1.203-3.719q0-1.578.516-2.75.515-1.172 1.578-1.75 1.062-.593 2.312-.593 1.578 0 2.578.796 1 .797 1.282 2.266l-1.594.234q-.234-.968-.813-1.453-.578-.5-1.39-.5-1.235 0-2.016.89-.781.892-.781 2.813 0 1.954.75 2.844.75.875 1.953.875.969 0 1.61-.594.656-.593.828-1.828zm3.015 3.547v-13.36h1.64v7.626l3.891-3.938h2.11l-3.688 3.594 4.063 6.078h-2.016l-3.203-4.953-1.156 1.125v3.828h-1.64zm15.953-3.11l1.688.204q-.406 1.484-1.485 2.312-1.078.813-2.765.813-2.125 0-3.375-1.297-1.235-1.312-1.235-3.672 0-2.453 1.25-3.797 1.266-1.343 3.266-1.343 1.938 0 3.156 1.328 1.235 1.312 1.235 3.703v.437h-7.22q.095 1.594.907 2.453.813.844 2.016.844.906 0 1.547-.469.64-.484 1.015-1.515zm-5.39-2.655h5.406q-.11-1.22-.625-1.829-.781-.953-2.031-.953-1.125 0-1.907.766-.765.75-.843 2.016zm12.72 4.296l.233 1.454q-.687.14-1.234.14-.89 0-1.39-.281-.485-.281-.688-.734-.203-.47-.203-1.938v-5.578h-1.203v-1.266h1.203v-2.39l1.625-.985v3.375h1.656v1.266h-1.656v5.672q0 .687.078.89.094.204.281.329.203.109.578.109.266 0 .72-.063z"/><path d="M221.648 501.793l.063-106.426"/><path stroke="#000" stroke-linejoin="round" stroke-linecap="butt" d="M221.648 501.793l.06-100.426"/><path fill="#000" stroke="#000" stroke-linecap="butt" d="M223.36 401.368l-1.65-4.539-1.654 4.537z" fill-rule="evenodd"/><path d="M221.711 343.525V227.556"/><path stroke="#000" stroke-linejoin="round" stroke-linecap="butt" d="M221.711 343.525V233.556"/><path fill="#000" stroke="#000" stroke-linecap="butt" d="M223.363 233.556l-1.652-4.538-1.651 4.538z" fill-rule="evenodd"/><path d="M126.247 184.37a8.64 8.64 0 018.64-8.64h173.648a8.64 8.64 0 018.64 8.64v34.562a8.64 8.64 0 01-8.64 8.64H134.887a8.64 8.64 0 01-8.64-8.64z"/><path stroke="#4a86e8" stroke-width="4" stroke-linejoin="round" stroke-linecap="butt" d="M126.247 184.37h0a8.64 8.64 0 018.64-8.64h173.648a8.64 8.64 0 018.64 8.64v34.562a8.64 8.64 0 01-8.64 8.64H134.887a8.64 8.64 0 01-8.64-8.64z"/><path fill="#000" d="M173.851 208.57v-13.358h2.657l3.156 9.453q.437 1.328.64 1.984.235-.734.704-2.14l3.203-9.297h2.375v13.359h-1.703v-11.172l-3.875 11.172h-1.594l-3.86-11.375v11.375h-1.703zm14.776-4.843q0-2.687 1.484-3.969 1.25-1.078 3.047-1.078 2 0 3.265 1.313 1.266 1.297 1.266 3.61 0 1.859-.562 2.937-.563 1.062-1.641 1.656-1.063.594-2.328.594-2.031 0-3.281-1.297-1.25-1.313-1.25-3.766zm1.687 0q0 1.86.797 2.797.812.922 2.047.922 1.219 0 2.031-.922.813-.937.813-2.844 0-1.797-.813-2.718-.812-.922-2.031-.922-1.235 0-2.047.922-.797.906-.797 2.765zm9.298 4.844v-9.672h1.468v1.375q1.063-1.594 3.079-1.594.875 0 1.609.313.734.312 1.094.828.375.5.515 1.203.094.453.094 1.594v5.953h-1.64v-5.89q0-1-.204-1.485-.187-.5-.672-.797-.484-.297-1.14-.297-1.047 0-1.813.672-.75.656-.75 2.516v5.28h-1.64zm16.688-1.188q-.922.766-1.766 1.094-.828.313-1.797.313-1.593 0-2.453-.782-.86-.78-.86-1.984 0-.719.329-1.297.328-.594.844-.937.531-.36 1.187-.547.469-.125 1.453-.25 1.985-.235 2.922-.563.016-.343.016-.422 0-1-.469-1.421-.625-.547-1.875-.547-1.156 0-1.703.406-.547.406-.812 1.422l-1.61-.219q.219-1.016.719-1.64.5-.641 1.453-.985.953-.344 2.188-.344 1.25 0 2.015.297.781.281 1.14.735.376.437.516 1.109.079.422.079 1.516v2.187q0 2.281.109 2.89.11.594.406 1.157h-1.703q-.266-.516-.328-1.188zm-.14-3.671q-.891.375-2.673.625-1.015.14-1.437.328-.422.187-.656.53-.22.345-.22.782 0 .656.5 1.094.5.437 1.454.437.938 0 1.672-.406.75-.422 1.094-1.14.265-.563.265-1.641v-.61zm10.469 4.859v-1.219q-.907 1.438-2.703 1.438-1.157 0-2.125-.641-.97-.64-1.5-1.781-.532-1.14-.532-2.625 0-1.453.485-2.625.484-1.188 1.437-1.813.969-.625 2.172-.625.875 0 1.547.375.687.36 1.11.953v-4.796h1.64v13.359h-1.531zm-5.172-4.828q0 1.86.781 2.781.781.922 1.844.922 1.078 0 1.828-.875.75-.89.75-2.688 0-1.984-.766-2.906-.765-.937-1.89-.937-1.078 0-1.813.89-.734.89-.734 2.813zm9.516 4.828v-13.36h9.656v1.579h-7.875v4.093h7.375v1.563h-7.375v4.547h8.188v1.578h-9.969zm12.194 0v-9.672h1.469v1.469q.562-1.031 1.03-1.36.485-.328 1.063-.328.828 0 1.688.532l-.563 1.515q-.61-.36-1.203-.36-.547 0-.969.329-.421.328-.609.89-.281.876-.281 1.922v5.063h-1.625zm6.212 0v-9.672h1.47v1.469q.562-1.031 1.03-1.36.485-.328 1.063-.328.828 0 1.687.532l-.562 1.515q-.61-.36-1.203-.36-.547 0-.969.329-.422.328-.61.89-.28.876-.28 1.922v5.063h-1.626zm5.62-4.844q0-2.687 1.484-3.969 1.25-1.078 3.047-1.078 2 0 3.265 1.313 1.266 1.297 1.266 3.61 0 1.859-.563 2.937-.562 1.062-1.64 1.656-1.063.594-2.328.594-2.032 0-3.282-1.297-1.25-1.313-1.25-3.766zm1.687 0q0 1.86.797 2.797.812.922 2.047.922 1.218 0 2.03-.922.813-.937.813-2.844 0-1.797-.812-2.718-.813-.922-2.031-.922-1.235 0-2.047.922-.797.906-.797 2.765zm9.282 4.844v-9.672h1.469v1.469q.562-1.031 1.03-1.36.485-.328 1.063-.328.828 0 1.688.532l-.563 1.515q-.609-.36-1.203-.36-.547 0-.969.329-.421.328-.609.89-.281.876-.281 1.922v5.063h-1.625z"/></g></svg>