<svg viewBox="0 0 1209.588 806.853" fill="none" stroke-linecap="square" stroke-miterlimit="10" xmlns="http://www.w3.org/2000/svg"><clipPath id="a"><path d="M0 0h1209.588v806.853H0V0z"/></clipPath><g clip-path="url(#a)"><path d="M0 0h1209.588v806.853H0z"/><path d="M261.366 759.148a8.64 8.64 0 018.64-8.64h173.649a8.64 8.64 0 018.64 8.64v34.562a8.64 8.64 0 01-8.64 8.64H270.007a8.64 8.64 0 01-8.64-8.64z"/><path stroke="#c00" stroke-width="4" stroke-linejoin="round" stroke-linecap="butt" d="M261.366 759.148h0a8.64 8.64 0 018.64-8.64h173.649a8.64 8.64 0 018.64 8.64v34.562a8.64 8.64 0 01-8.64 8.64H270.007a8.64 8.64 0 01-8.64-8.64z"/><path fill="#000" d="M331.398 783.35l5.125-13.36h1.906l5.469 13.36h-2.016l-1.547-4.048h-5.594l-1.468 4.047h-1.875zm3.859-5.485h4.531l-1.406-3.703q-.625-1.688-.938-2.766-.265 1.281-.718 2.547l-1.469 3.922zm9.194 2.593l1.625-.25q.125.97.75 1.5.625.516 1.75.516t1.671-.453q.547-.469.547-1.094 0-.547-.484-.875-.328-.219-1.672-.547-1.812-.468-2.516-.797-.687-.328-1.046-.906-.36-.594-.36-1.312 0-.64.297-1.188.297-.562.813-.922.375-.28 1.03-.468.673-.204 1.423-.204 1.14 0 2 .329.859.328 1.265.89.422.563.578 1.5l-1.609.219q-.11-.75-.64-1.172-.516-.422-1.47-.422-1.14 0-1.624.375-.47.375-.47.875 0 .313.188.578.204.266.641.438.234.094 1.438.422 1.75.453 2.437.75.688.297 1.078.86.39.562.39 1.405 0 .828-.484 1.547-.468.719-1.375 1.125-.906.39-2.046.39-1.875 0-2.875-.78-.985-.782-1.25-2.329zm9.906 6.61l-.188-1.531q.547.14.938.14.547 0 .875-.187.328-.172.547-.5.156-.25.5-1.219.047-.14.14-.406l-3.672-9.688h1.766l2.016 5.594q.39 1.078.703 2.25.281-1.125.672-2.203l2.078-5.64h1.64l-3.687 9.827q-.594 1.61-.922 2.203-.437.813-1 1.188-.562.375-1.344.375-.484 0-1.062-.203zm9.406-3.719v-9.672h1.469v1.375q1.062-1.594 3.078-1.594.875 0 1.61.313.734.312 1.093.828.375.5.516 1.203.093.453.093 1.594v5.953h-1.64v-5.89q0-1-.203-1.485-.188-.5-.672-.797-.485-.297-1.14-.297-1.048 0-1.813.672-.75.656-.75 2.516v5.281h-1.641zm16.688-3.547l1.61.219q-.266 1.656-1.36 2.61-1.078.937-2.672.937-1.984 0-3.187-1.297-1.203-1.297-1.203-3.719 0-1.578.515-2.75.516-1.172 1.579-1.75 1.062-.594 2.312-.594 1.578 0 2.578.797 1 .797 1.281 2.266l-1.593.234q-.235-.968-.813-1.453-.578-.5-1.39-.5-1.235 0-2.016.89-.781.891-.781 2.813 0 1.953.75 2.844.75.875 1.953.875.969 0 1.61-.594.655-.593.827-1.828z"/><path d="M33.09 75.055c96.21 10.025 386.457 60.014 577.258 60.15 190.8.136 472.956-49.447 567.547-59.336"/><path stroke="#ccc" stroke-width="2" stroke-linejoin="round" stroke-linecap="butt" stroke-dasharray="8.0,6.0" d="M33.09 75.055c96.21 10.025 386.457 60.014 577.258 60.15 190.8.136 472.956-49.447 567.547-59.336"/><path d="M261.223 309.533a8.64 8.64 0 018.64-8.64h173.649a8.64 8.64 0 018.64 8.64v34.561a8.64 8.64 0 01-8.64 8.64H269.864a8.64 8.64 0 01-8.64-8.64z"/><path stroke="#4a86e8" stroke-width="4" stroke-linejoin="round" stroke-linecap="butt" d="M261.223 309.533h0a8.64 8.64 0 018.64-8.64h173.649a8.64 8.64 0 018.64 8.64v34.561a8.64 8.64 0 01-8.64 8.64H269.864a8.64 8.64 0 01-8.64-8.64z"/><path fill="#000" d="M329.01 329.437l1.656-.14q.125 1 .547 1.64.437.64 1.343 1.047.922.39 2.063.39 1 0 1.781-.297.781-.296 1.156-.812.375-.531.375-1.156 0-.625-.375-1.094-.359-.469-1.187-.797-.547-.203-2.39-.64-1.829-.454-2.563-.844-.969-.5-1.438-1.235-.468-.75-.468-1.672 0-1 .578-1.875.578-.89 1.672-1.343 1.109-.453 2.453-.453 1.484 0 2.61.484 1.14.469 1.75 1.406.608.922.655 2.094l-1.687.125q-.14-1.266-.938-1.906-.78-.657-2.312-.657-1.61 0-2.344.594-.734.594-.734 1.422 0 .719.531 1.172.5.469 2.656.969 2.156.484 2.953.843 1.172.532 1.72 1.36.562.828.562 1.906 0 1.063-.61 2.016-.61.937-1.75 1.468-1.14.516-2.578.516-1.812 0-3.047-.531-1.219-.531-1.922-1.594-.687-1.062-.718-2.406zm12.834 8v-13.375h1.484v1.25q.531-.735 1.188-1.094.672-.375 1.625-.375 1.234 0 2.172.64.953.626 1.437 1.798.484 1.156.484 2.546 0 1.485-.53 2.672-.532 1.188-1.548 1.828-1.015.625-2.14.625-.813 0-1.47-.343-.655-.344-1.062-.875v4.703h-1.64zm1.484-8.485q0 1.86.75 2.766.766.89 1.828.89 1.094 0 1.875-.921.782-.938.782-2.875 0-1.844-.766-2.766-.75-.922-1.813-.922-1.046 0-1.859.985-.797.968-.797 2.843zm15.204 3.594q-.922.766-1.766 1.094-.828.312-1.797.312-1.593 0-2.453-.78-.859-.782-.859-1.985 0-.719.328-1.297.328-.594.844-.938.531-.359 1.187-.546.47-.125 1.453-.25 1.985-.235 2.922-.563.016-.344.016-.422 0-1-.469-1.422-.625-.547-1.875-.547-1.156 0-1.703.407-.547.406-.812 1.422l-1.61-.22q.219-1.015.719-1.64.5-.64 1.453-.984.953-.344 2.188-.344 1.25 0 2.015.297.781.281 1.14.734.376.438.516 1.11.079.422.079 1.515v2.188q0 2.281.109 2.89.11.594.406 1.157h-1.703q-.266-.516-.328-1.188zm-.14-3.672q-.891.375-2.673.625-1.015.14-1.437.328-.422.188-.656.532-.219.343-.219.78 0 .657.5 1.095.5.437 1.453.437.938 0 1.672-.406.75-.422 1.094-1.14.265-.563.265-1.641v-.61zm5.984 4.86l-2.968-9.672h1.703l1.531 5.578.578 2.078q.047-.156.5-2l1.547-5.656h1.688l1.437 5.61.484 1.843.563-1.86 1.656-5.593h1.594l-3.031 9.672h-1.703l-1.532-5.797-.375-1.64-1.953 7.437h-1.719zm11.692 0v-9.672h1.469v1.375q1.062-1.594 3.078-1.594.875 0 1.61.313.734.312 1.093.828.375.5.516 1.203.094.453.094 1.594v5.953h-1.641v-5.891q0-1-.203-1.484-.188-.5-.672-.797-.484-.297-1.14-.297-1.048 0-1.813.672-.75.656-.75 2.515v5.282h-1.64z"/><path d="M356.688 152.72V57.54"/><path stroke="#000" stroke-width="2" stroke-linejoin="round" stroke-linecap="butt" d="M356.688 152.72V69.54"/><path fill="#000" stroke="#000" stroke-width="2" stroke-linecap="butt" d="M359.991 69.54l-3.303-9.077-3.304 9.076z" fill-rule="evenodd"/><path d="M261.367 604.722a8.64 8.64 0 018.641-8.64h173.648a8.64 8.64 0 018.64 8.64v34.561a8.64 8.64 0 01-8.64 8.64H270.008a8.64 8.64 0 01-8.64-8.64z"/><path stroke="#4a86e8" stroke-width="4" stroke-linejoin="round" stroke-linecap="butt" d="M261.367 604.722h0a8.64 8.64 0 018.641-8.64h173.648a8.64 8.64 0 018.64 8.64v34.561a8.64 8.64 0 01-8.64 8.64H270.008a8.64 8.64 0 01-8.64-8.64z"/><path fill="#000" d="M323.312 628.923V617.14h-4.407v-1.578h10.579v1.578h-4.407v11.782h-1.765zm12.342-3.11l1.688.203q-.406 1.485-1.485 2.313-1.078.812-2.765.812-2.125 0-3.375-1.297-1.235-1.312-1.235-3.671 0-2.454 1.25-3.797 1.266-1.344 3.266-1.344 1.938 0 3.156 1.328 1.235 1.313 1.235 3.703v.438h-7.22q.095 1.593.907 2.453.813.844 2.016.844.906 0 1.547-.47.64-.484 1.015-1.515zm-5.39-2.656h5.406q-.11-1.219-.625-1.828-.781-.953-2.031-.953-1.125 0-1.907.765-.765.75-.843 2.016zm9.141 5.766v-9.672h1.469v1.36q.453-.72 1.203-1.142.765-.437 1.719-.437 1.078 0 1.765.453.688.438.969 1.234 1.156-1.687 2.984-1.687 1.453 0 2.22.797.78.797.78 2.453v6.64h-1.64v-6.093q0-.985-.157-1.406-.156-.438-.578-.704-.422-.265-.984-.265-1.016 0-1.688.687-.671.672-.671 2.157v5.625h-1.641v-6.282q0-1.093-.406-1.64-.407-.547-1.313-.547-.687 0-1.281.36-.594.359-.86 1.062-.25.703-.25 2.031v5.016h-1.64zm15.54 3.703V619.25h1.485v1.25q.531-.735 1.188-1.094.672-.375 1.625-.375 1.234 0 2.172.64.953.626 1.437 1.797.484 1.157.484 2.547 0 1.485-.53 2.672-.532 1.188-1.548 1.828-1.015.625-2.14.625-.813 0-1.47-.343-.655-.344-1.062-.875v4.703h-1.64zm1.485-8.485q0 1.86.75 2.766.766.89 1.828.89 1.094 0 1.875-.921.782-.938.782-2.875 0-1.844-.766-2.766-.75-.922-1.813-.922-1.046 0-1.859.985-.797.968-.797 2.843zm8.282-.062q0-2.688 1.485-3.969 1.25-1.078 3.046-1.078 2 0 3.266 1.312 1.266 1.297 1.266 3.61 0 1.86-.563 2.937-.562 1.063-1.64 1.657-1.063.593-2.329.593-2.03 0-3.28-1.297-1.25-1.312-1.25-3.765zm1.688 0q0 1.86.797 2.797.812.922 2.046.922 1.22 0 2.032-.922.812-.938.812-2.844 0-1.797-.812-2.719-.813-.922-2.032-.922-1.234 0-2.046.922-.797.906-.797 2.766zm9.282 4.844v-9.672h1.468v1.468q.563-1.03 1.032-1.359.484-.328 1.062-.328.828 0 1.688.531l-.563 1.516q-.61-.36-1.203-.36-.547 0-.969.329-.422.328-.61.89-.28.875-.28 1.922v5.063h-1.625zm12.54-1.188q-.921.766-1.765 1.094-.828.312-1.797.312-1.594 0-2.453-.78-.86-.782-.86-1.985 0-.719.329-1.297.328-.594.843-.938.532-.359 1.188-.547.469-.125 1.453-.25 1.984-.234 2.922-.562.015-.344.015-.422 0-1-.468-1.422-.625-.547-1.875-.547-1.157 0-1.703.407-.547.406-.813 1.421l-1.61-.218q.22-1.016.72-1.64.5-.642 1.453-.985.953-.344 2.187-.344 1.25 0 2.016.297.78.281 1.14.734.375.438.516 1.11.078.421.078 1.515v2.188q0 2.281.11 2.89.109.594.406 1.157h-1.703q-.266-.516-.329-1.188zm-.14-3.672q-.89.375-2.672.625-1.016.14-1.438.328-.421.188-.656.532-.219.343-.219.78 0 .657.5 1.095.5.437 1.454.437.937 0 1.671-.406.75-.422 1.094-1.14.266-.563.266-1.641v-.61zm4.157 4.86v-13.36h1.64v13.36h-1.64z"/><path d="M356.832 596.081l-.157-102.582"/><path stroke="#000" stroke-width="2" stroke-linejoin="round" stroke-linecap="butt" d="M356.832 596.081l-.139-90.582"/><path fill="#000" stroke="#000" stroke-width="2" stroke-linecap="butt" d="M359.996 505.494l-3.317-9.072-3.29 9.082z" fill-rule="evenodd"/><path d="M261.223 14.343a8.64 8.64 0 018.64-8.64h173.649a8.64 8.64 0 018.64 8.64v34.561a8.64 8.64 0 01-8.64 8.64H269.864a8.64 8.64 0 01-8.64-8.64z"/><path stroke="#4a86e8" stroke-width="4" stroke-linejoin="round" stroke-linecap="butt" d="M261.223 14.343h0a8.64 8.64 0 018.64-8.64h173.649a8.64 8.64 0 018.64 8.64v34.561a8.64 8.64 0 01-8.64 8.64H269.864a8.64 8.64 0 01-8.64-8.64z"/><path fill="#000" d="M308.828 38.543V25.184h2.656l3.156 9.453q.438 1.328.64 1.984.235-.734.704-2.14l3.203-9.297h2.375v13.36h-1.703V27.37l-3.875 11.172h-1.594l-3.86-11.375v11.375h-1.702zm14.775-4.843q0-2.688 1.484-3.97 1.25-1.077 3.047-1.077 2 0 3.266 1.312 1.265 1.297 1.265 3.61 0 1.859-.562 2.937-.563 1.063-1.64 1.656-1.063.594-2.329.594-2.031 0-3.281-1.297-1.25-1.312-1.25-3.765zm1.687 0q0 1.859.797 2.796.813.922 2.047.922 1.219 0 2.031-.922.813-.937.813-2.843 0-1.797-.813-2.719-.812-.922-2.03-.922-1.235 0-2.048.922-.797.906-.797 2.766zm9.298 4.843v-9.672h1.469v1.375q1.062-1.593 3.078-1.593.875 0 1.61.312.734.313 1.093.828.375.5.516 1.203.093.454.093 1.594v5.953h-1.64v-5.89q0-1-.203-1.485-.188-.5-.672-.797-.485-.296-1.14-.296-1.048 0-1.813.671-.75.657-.75 2.516v5.281h-1.64zm16.688-1.187q-.922.765-1.765 1.094-.828.312-1.797.312-1.594 0-2.453-.781-.86-.781-.86-1.985 0-.718.328-1.296.329-.594.844-.938.531-.36 1.188-.547.468-.125 1.453-.25 1.984-.234 2.922-.562.015-.344.015-.422 0-1-.468-1.422-.625-.547-1.875-.547-1.157 0-1.704.406-.546.407-.812 1.422l-1.61-.219q.22-1.015.72-1.64.5-.64 1.452-.985.954-.343 2.188-.343 1.25 0 2.016.297.78.28 1.14.734.375.437.516 1.11.078.421.078 1.515v2.187q0 2.282.11 2.891.109.594.406 1.156h-1.704q-.265-.515-.328-1.187zm-.14-3.672q-.891.375-2.672.625-1.016.14-1.438.328-.422.188-.656.531-.219.344-.219.782 0 .656.5 1.093.5.438 1.453.438.938 0 1.672-.406.75-.422 1.094-1.141.266-.563.266-1.64v-.61zm10.47 4.86v-1.22q-.907 1.438-2.704 1.438-1.156 0-2.125-.64-.969-.641-1.5-1.782-.531-1.14-.531-2.625 0-1.453.484-2.625.485-1.187 1.438-1.812.968-.625 2.172-.625.875 0 1.546.375.688.36 1.11.953v-4.797h1.64v13.36h-1.53zm-5.173-4.829q0 1.86.782 2.781.78.922 1.843.922 1.078 0 1.828-.875.75-.89.75-2.687 0-1.985-.765-2.906-.766-.938-1.89-.938-1.079 0-1.813.89-.735.891-.735 2.813zm9.517 4.828V25.184h9.656v1.578h-7.875v4.094h7.375v1.562h-7.375v4.547h8.187v1.578h-9.968zm12.193 0v-9.672h1.469v1.47q.562-1.032 1.031-1.36.485-.328 1.063-.328.828 0 1.687.531l-.562 1.516q-.61-.36-1.203-.36-.547 0-.97.328-.421.328-.609.891-.28.875-.28 1.922v5.062h-1.626zm6.213 0v-9.672h1.469v1.47q.562-1.032 1.03-1.36.485-.328 1.063-.328.828 0 1.688.531l-.563 1.516q-.609-.36-1.203-.36-.547 0-.969.328-.421.328-.609.891-.281.875-.281 1.922v5.062h-1.625zm5.619-4.843q0-2.688 1.484-3.97 1.25-1.077 3.047-1.077 2 0 3.266 1.312 1.265 1.297 1.265 3.61 0 1.859-.562 2.937-.563 1.063-1.64 1.656-1.063.594-2.329.594-2.031 0-3.281-1.297-1.25-1.312-1.25-3.765zm1.687 0q0 1.859.797 2.796.813.922 2.047.922 1.219 0 2.031-.922.813-.937.813-2.843 0-1.797-.813-2.719-.812-.922-2.031-.922-1.234 0-2.047.922-.797.906-.797 2.766zm9.282 4.843v-9.672h1.469v1.47q.563-1.032 1.031-1.36.485-.328 1.063-.328.828 0 1.687.531l-.562 1.516q-.61-.36-1.203-.36-.547 0-.97.328-.421.328-.608.891-.282.875-.282 1.922v5.062h-1.625z"/><path d="M356.83 750.508V647.925"/><path stroke="#000" stroke-width="2" stroke-linejoin="round" stroke-linecap="butt" d="M356.83 750.508v-90.583"/><path fill="#000" stroke="#000" stroke-width="2" stroke-linecap="butt" d="M360.134 659.925l-3.303-9.076-3.304 9.076z" fill-rule="evenodd"/><path d="M924.476 444.028a8.64 8.64 0 018.641-8.64h173.648a8.64 8.64 0 018.64 8.64v34.561a8.64 8.64 0 01-8.64 8.64H933.117a8.64 8.64 0 01-8.64-8.64z"/><path stroke="#c00" stroke-width="4" stroke-linejoin="round" stroke-linecap="butt" d="M924.476 444.028h0a8.64 8.64 0 018.641-8.64h173.648a8.64 8.64 0 018.64 8.64v34.561a8.64 8.64 0 01-8.64 8.64H933.117a8.64 8.64 0 01-8.64-8.64z"/><path fill="#000" d="M1000.047 463.932l1.656-.141q.125 1 .547 1.64.438.641 1.344 1.047.922.391 2.062.391 1 0 1.782-.297.78-.297 1.156-.812.375-.532.375-1.157t-.375-1.093q-.36-.47-1.188-.797-.547-.203-2.39-.64-1.828-.454-2.563-.845-.969-.5-1.437-1.234-.47-.75-.47-1.672 0-1 .58-1.875.577-.89 1.67-1.344 1.11-.453 2.454-.453 1.484 0 2.61.485 1.14.468 1.75 1.406.609.922.656 2.094l-1.688.125q-.14-1.266-.937-1.907-.782-.656-2.313-.656-1.61 0-2.344.594-.734.594-.734 1.422 0 .719.531 1.172.5.468 2.657.968 2.156.485 2.953.844 1.172.531 1.718 1.36.563.828.563 1.906 0 1.062-.61 2.015-.609.938-1.75 1.47-1.14.515-2.578.515-1.812 0-3.046-.531-1.22-.532-1.922-1.594-.688-1.063-.72-2.406zm12.756 8.015l-.188-1.531q.547.14.938.14.547 0 .875-.187.328-.172.547-.5.156-.25.5-1.219.047-.14.14-.406l-3.671-9.687h1.765l2.016 5.593q.39 1.078.703 2.25.281-1.125.672-2.203l2.078-5.64h1.64l-3.687 9.828q-.594 1.609-.922 2.203-.437.812-1 1.187-.562.375-1.344.375-.484 0-1.062-.203zm9.406-3.719v-9.671h1.469v1.375q1.062-1.594 3.078-1.594.875 0 1.61.312.734.313 1.093.828.375.5.516 1.204.094.453.094 1.593v5.953h-1.641v-5.89q0-1-.203-1.485-.188-.5-.672-.796-.484-.297-1.14-.297-1.048 0-1.813.672-.75.656-.75 2.515v5.281h-1.64zm16.688-3.546l1.61.218q-.266 1.657-1.36 2.61-1.078.937-2.671.937-1.985 0-3.188-1.297t-1.203-3.718q0-1.579.516-2.75.515-1.172 1.578-1.75 1.062-.594 2.312-.594 1.578 0 2.578.797 1 .797 1.282 2.265l-1.594.235q-.235-.97-.813-1.453-.578-.5-1.39-.5-1.235 0-2.016.89-.781.89-.781 2.813 0 1.953.75 2.843.75.875 1.953.875.969 0 1.61-.593.656-.594.827-1.828z"/><path d="M924.493 14.343a8.64 8.64 0 018.641-8.64h173.648a8.64 8.64 0 018.64 8.64v34.561a8.64 8.64 0 01-8.64 8.64H933.134a8.64 8.64 0 01-8.64-8.64z"/><path stroke="#4a86e8" stroke-width="4" stroke-linejoin="round" stroke-linecap="butt" d="M924.493 14.343h0a8.64 8.64 0 018.641-8.64h173.648a8.64 8.64 0 018.64 8.64v34.561a8.64 8.64 0 01-8.64 8.64H933.134a8.64 8.64 0 01-8.64-8.64z"/><path fill="#000" d="M998.585 38.543V25.184h4.61q1.547 0 2.375.203 1.14.25 1.953.953 1.062.89 1.578 2.281.531 1.391.531 3.172 0 1.516-.36 2.703-.359 1.172-.921 1.938-.547.766-1.203 1.219-.656.437-1.594.672-.937.218-2.14.218h-4.829zm1.766-1.578h2.86q1.312 0 2.062-.234.75-.25 1.203-.703.625-.625.969-1.688.359-1.062.359-2.578 0-2.094-.687-3.219-.688-1.125-1.672-1.5-.703-.28-2.282-.28h-2.812v10.202zm18.13-1.531l1.687.203q-.407 1.484-1.485 2.313-1.078.812-2.765.812-2.125 0-3.375-1.297-1.235-1.312-1.235-3.672 0-2.453 1.25-3.797 1.266-1.343 3.266-1.343 1.937 0 3.156 1.328 1.235 1.312 1.235 3.703v.437h-7.22q.095 1.594.907 2.454.813.843 2.016.843.906 0 1.547-.468.64-.485 1.015-1.516zm-5.391-2.656h5.406q-.11-1.219-.625-1.828-.781-.954-2.031-.954-1.125 0-1.907.766-.765.75-.843 2.016zm9.531 5.765v-8.406h-1.453v-1.266h1.453v-1.03q0-.97.172-1.454.235-.64.828-1.031.594-.39 1.672-.39.688 0 1.532.155l-.25 1.438q-.5-.094-.954-.094-.75 0-1.062.328-.313.313-.313 1.188v.89h1.891v1.266h-1.89v8.406h-1.626zm11.418-3.109l1.688.203q-.407 1.484-1.485 2.313-1.078.812-2.765.812-2.125 0-3.375-1.297-1.235-1.312-1.235-3.672 0-2.453 1.25-3.797 1.266-1.343 3.266-1.343 1.937 0 3.156 1.328 1.235 1.312 1.235 3.703v.437h-7.22q.095 1.594.907 2.454.813.843 2.016.843.906 0 1.547-.468.64-.485 1.015-1.516zm-5.39-2.656h5.406q-.11-1.219-.625-1.828-.781-.954-2.031-.954-1.125 0-1.907.766-.765.75-.843 2.016zm9.125 5.765v-9.672h1.469v1.47q.563-1.032 1.031-1.36.485-.328 1.063-.328.828 0 1.687.531l-.562 1.516q-.61-.36-1.203-.36-.547 0-.97.328-.421.328-.608.891-.282.875-.282 1.922v5.062h-1.625z"/><path d="M1019.94 435.387L452.162 178.631"/><path stroke="#000" stroke-width="2" stroke-linejoin="round" stroke-linecap="butt" d="M1019.94 435.387L463.096 183.576"/><path fill="#000" stroke="#000" stroke-width="2" stroke-linecap="butt" d="M464.457 180.566l-9.632-.73 6.91 6.75z" fill-rule="evenodd"/><path d="M1019.94 435.387L688.32 204.552"/><path stroke="#000" stroke-width="2" stroke-linejoin="round" stroke-linecap="butt" d="M1019.94 435.387L698.169 211.408"/><path fill="#000" stroke="#000" stroke-width="2" stroke-linecap="butt" d="M700.055 208.697l-9.336-2.474 5.562 7.896z" fill-rule="evenodd"/><path d="M452.295 776.43l472.19-315.119"/><path stroke="#000" stroke-width="2" stroke-linejoin="round" stroke-linecap="butt" d="M452.295 776.43l462.208-308.458"/><path fill="#000" stroke="#000" stroke-width="2" stroke-linecap="butt" d="M916.337 470.72l5.715-7.786-9.383 2.29z" fill-rule="evenodd"/><path d="M592.85 363.822a8.64 8.64 0 018.64-8.64h173.648a8.64 8.64 0 018.64 8.64v34.561a8.64 8.64 0 01-8.64 8.64H601.49a8.64 8.64 0 01-8.64-8.64z"/><path stroke="#4a86e8" stroke-width="4" stroke-linejoin="round" stroke-linecap="butt" d="M592.85 363.822h0a8.64 8.64 0 018.64-8.64h173.648a8.64 8.64 0 018.64 8.64v34.561a8.64 8.64 0 01-8.64 8.64H601.49a8.64 8.64 0 01-8.64-8.64z"/><path fill="#000" d="M675.957 383.335l1.766.453q-.562 2.172-2 3.328-1.437 1.14-3.531 1.14-2.156 0-3.516-.874-1.344-.89-2.062-2.547-.703-1.672-.703-3.594 0-2.078.797-3.625.796-1.562 2.265-2.36 1.485-.812 3.25-.812 2 0 3.36 1.016 1.375 1.015 1.906 2.875l-1.735.406q-.468-1.453-1.359-2.11-.875-.671-2.203-.671-1.547 0-2.578.734-1.032.735-1.453 1.985-.422 1.234-.422 2.562 0 1.703.5 2.969.5 1.265 1.547 1.906 1.047.625 2.265.625 1.485 0 2.516-.86 1.031-.859 1.39-2.546zm3.692 4.687v-13.359h1.64v13.36h-1.64zm3.583-4.843q0-2.688 1.484-3.97 1.25-1.077 3.047-1.077 2 0 3.265 1.312 1.266 1.297 1.266 3.61 0 1.859-.562 2.937-.563 1.063-1.641 1.656-1.063.594-2.328.594-2.031 0-3.281-1.297-1.25-1.312-1.25-3.765zm1.687 0q0 1.859.797 2.796.812.922 2.047.922 1.219 0 2.031-.922.813-.937.813-2.843 0-1.797-.813-2.719-.812-.922-2.031-.922-1.235 0-2.047.922-.797.906-.797 2.766zm15.61 1.296l1.61.22q-.266 1.655-1.36 2.609-1.078.937-2.672.937-1.984 0-3.187-1.297-1.203-1.297-1.203-3.719 0-1.578.515-2.75.516-1.171 1.578-1.75 1.063-.593 2.313-.593 1.578 0 2.578.797 1 .796 1.281 2.265l-1.594.235q-.234-.97-.812-1.454-.578-.5-1.39-.5-1.235 0-2.016.891-.782.89-.782 2.813 0 1.953.75 2.843.75.875 1.954.875.968 0 1.609-.593.656-.594.828-1.829zm3.016 3.547v-13.359h1.64v7.625l3.891-3.938h2.11l-3.688 3.594 4.062 6.078h-2.015l-3.203-4.953-1.157 1.125v3.828h-1.64z"/><path d="M356.832 596.081l331.496-189.07"/><path stroke="#000" stroke-width="2" stroke-linejoin="round" stroke-linecap="butt" d="M356.832 596.081l321.072-183.125"/><path fill="#000" stroke="#000" stroke-width="2" stroke-linecap="butt" d="M679.541 415.825l6.247-7.366-9.52 1.627z" fill-rule="evenodd"/><path d="M924.476 461.308L688.32 407.01"/><path stroke="#000" stroke-width="2" stroke-linejoin="round" stroke-linecap="butt" d="M924.476 461.308l-224.462-51.61"/><path fill="#000" stroke="#000" stroke-width="2" stroke-linecap="butt" d="M700.754 406.479l-9.586 1.185 8.106 5.254z" fill-rule="evenodd"/><path d="M73.657 750.51h64.725v51.842H73.657z"/><path fill="#000" d="M83.532 774.965v-9.562h1.079v.89q.375-.53.843-.78.485-.266 1.157-.266.875 0 1.546.453.688.453 1.032 1.281.343.828.343 1.828 0 1.047-.375 1.906-.375.844-1.109 1.297-.719.453-1.531.453-.578 0-1.047-.25t-.766-.625v3.375h-1.172zm1.063-6.078q0 1.344.531 1.985.547.625 1.313.625.781 0 1.343-.657.563-.656.563-2.046 0-1.313-.547-1.97-.547-.671-1.297-.671-.75 0-1.328.703-.578.703-.578 2.031zm10.881 3.422v-1.015q-.812 1.171-2.187 1.171-.61 0-1.14-.234-.532-.234-.798-.578-.25-.36-.36-.875-.062-.344-.062-1.094v-4.281h1.172v3.828q0 .922.063 1.234.11.47.468.735.36.25.891.25.516 0 .984-.266.47-.265.657-.734.187-.469.187-1.344v-3.703h1.172v6.906h-1.047zm2.866 0v-6.906h1.062v1.047q.407-.735.735-.969.343-.234.765-.234.594 0 1.203.375l-.406 1.078q-.437-.25-.86-.25-.39 0-.702.234-.297.235-.422.64-.203.626-.203 1.36v3.625h-1.172zm9.188-2.219l1.203.141q-.28 1.063-1.062 1.656-.766.578-1.969.578-1.516 0-2.406-.937-.89-.938-.89-2.61 0-1.75.89-2.703.906-.968 2.344-.968 1.39 0 2.265.937.875.938.875 2.656v.313h-5.156q.062 1.14.64 1.75.579.594 1.438.594.656 0 1.11-.328.453-.344.718-1.079zm-3.844-1.906h3.86q-.078-.86-.438-1.297-.562-.687-1.453-.687-.812 0-1.36.547-.546.531-.609 1.437zm-20.138 11.938v-1.36h1.172v1.36h-1.172zm0 8.187v-6.906h1.172v6.906h-1.172zm2.946 0v-6.906h1.046v.969q.329-.516.86-.813.547-.312 1.234-.312.781 0 1.266.312.484.313.687.89.828-1.202 2.14-1.202 1.032 0 1.58.578.562.562.562 1.734v4.75h-1.172v-4.36q0-.702-.125-1-.11-.312-.407-.5-.296-.187-.703-.187-.718 0-1.203.485-.484.484-.484 1.547v4.015h-1.172v-4.484q0-.781-.297-1.172-.281-.39-.922-.39-.5 0-.922.265-.422.25-.61.75-.187.5-.187 1.453v3.578h-1.171zm11.102 2.656v-9.562h1.078v.89q.375-.53.844-.78.484-.266 1.156-.266.875 0 1.547.453.687.453 1.031 1.281.344.828.344 1.828 0 1.047-.375 1.906-.375.844-1.11 1.297-.718.453-1.53.453-.579 0-1.048-.25-.468-.25-.765-.625v3.375h-1.172zm1.062-6.078q0 1.344.532 1.985.547.625 1.312.625.781 0 1.344-.657.562-.656.562-2.046 0-1.313-.546-1.97-.547-.671-1.297-.671-.75 0-1.328.703-.579.703-.579 2.031zm10.882 3.422v-1.015q-.813 1.171-2.188 1.171-.61 0-1.14-.234-.532-.234-.797-.578-.25-.36-.36-.875-.062-.344-.062-1.094v-4.281h1.172v3.828q0 .922.062 1.234.11.47.469.735.36.25.89.25.516 0 .985-.266.469-.265.656-.734.188-.469.188-1.344v-3.703h1.172v6.906h-1.047zm2.865 0v-6.906h1.063v1.047q.406-.735.734-.969.344-.234.766-.234.594 0 1.203.375l-.406 1.078q-.438-.25-.86-.25-.39 0-.703.234-.297.235-.422.64-.203.626-.203 1.36v3.625h-1.172zm9.189-2.219l1.203.141q-.281 1.063-1.063 1.656-.765.578-1.968.578-1.516 0-2.407-.937-.89-.938-.89-2.61 0-1.75.89-2.703.907-.968 2.344-.968 1.39 0 2.266.937.875.938.875 2.656v.313h-5.157q.063 1.14.641 1.75.578.594 1.438.594.656 0 1.109-.328.453-.344.719-1.079zm-3.844-1.906h3.86q-.079-.86-.438-1.297-.563-.687-1.453-.687-.813 0-1.36.547-.547.531-.61 1.437z"/><path d="M33.09 768.154h40.566"/><path stroke="#4a86e8" stroke-width="4" stroke-linejoin="round" stroke-linecap="butt" d="M33.09 768.154h40.566"/><path d="M33.09 785.618h40.566"/><path stroke="#c00" stroke-width="4" stroke-linejoin="round" stroke-linecap="butt" d="M33.09 785.618h40.566"/><path d="M71.113 15.702h82.551v31.843H71.113z"/><path fill="#000" d="M85.332 34.986l1.171.125q-.437 1.297-1.265 1.922-.813.625-1.844.625-1.14 0-1.844-.718-.687-.735-.687-2.047 0-1.125.437-2.219.453-1.094 1.282-1.656.843-.578 1.921-.578 1.11 0 1.766.625.656.625.656 1.656l-1.156.078q-.016-.656-.39-1.016-.376-.375-.985-.375-.703 0-1.234.453-.516.438-.813 1.36-.297.906-.297 1.75 0 .89.391 1.344.39.437.969.437.562 0 1.078-.437.531-.438.844-1.329zm6.554 1.657q-.625.531-1.187.781-.563.234-1.203.234-.97 0-1.563-.562-.578-.563-.578-1.438 0-.578.266-1.015.265-.453.703-.719.437-.281 1.062-.39.407-.079 1.516-.126 1.11-.047 1.594-.234.125-.484.125-.813 0-.406-.297-.64-.406-.328-1.188-.328-.75 0-1.218.328-.47.328-.688.937l-1.187-.109q.359-1.016 1.14-1.563.797-.546 2-.546 1.281 0 2.031.609.579.453.579 1.187 0 .547-.157 1.282l-.39 1.718q-.188.813-.188 1.329 0 .328.156.937h-1.203q-.093-.344-.125-.86zm.422-2.64q-.234.093-.531.155-.281.047-.938.11-1.03.078-1.453.218-.422.141-.64.454-.22.296-.22.671 0 .5.345.829.343.312.984.312.578 0 1.11-.312.546-.313.859-.86.312-.562.484-1.578zm5.085 2.546l-.204.953q-.421.11-.812.11-.703 0-1.125-.344-.313-.25-.313-.703 0-.235.172-1.047l.828-4.016h-.921l.187-.906h.938l.343-1.703 1.36-.813-.532 2.516h1.157l-.188.906h-1.156l-.797 3.813q-.156.734-.156.875 0 .218.11.328.124.11.405.11.391 0 .704-.079zm1.046-1.406l1.188-.078q0 .515.156.875.156.359.578.593.422.22.969.22.781 0 1.172-.313.39-.313.39-.735 0-.312-.234-.578-.234-.281-1.172-.672-.937-.406-1.187-.578-.438-.266-.672-.625-.219-.36-.219-.828 0-.813.656-1.39.657-.594 1.828-.594 1.297 0 1.97.609.687.594.718 1.578l-1.156.078q-.032-.625-.453-.984-.407-.375-1.172-.375-.61 0-.953.281-.329.281-.329.61 0 .312.297.562.188.172 1 .531 1.36.578 1.703.922.563.531.563 1.313 0 .515-.313 1.015-.312.485-.968.781-.641.297-1.516.297-1.203 0-2.047-.593-.844-.594-.797-1.922z"/><path d="M71.113 121.665h82.551v31.843H71.113z"/><path fill="#000" d="M85.332 140.95l1.171.125q-.437 1.297-1.265 1.922-.813.625-1.844.625-1.14 0-1.844-.72-.687-.734-.687-2.046 0-1.125.437-2.219.453-1.094 1.282-1.656.843-.578 1.921-.578 1.11 0 1.766.625.656.625.656 1.656l-1.156.078q-.016-.656-.39-1.015-.376-.375-.985-.375-.703 0-1.234.453-.516.437-.813 1.36-.297.905-.297 1.75 0 .89.391 1.343.39.437.969.437.562 0 1.078-.437.531-.438.844-1.328zm6.554 1.656q-.625.531-1.187.781-.563.235-1.203.235-.97 0-1.563-.563-.578-.562-.578-1.437 0-.579.266-1.016.265-.453.703-.719.437-.281 1.062-.39.407-.079 1.516-.125 1.11-.047 1.594-.235.125-.484.125-.812 0-.407-.297-.64-.406-.329-1.188-.329-.75 0-1.218.328-.47.328-.688.938l-1.187-.11q.359-1.015 1.14-1.562.797-.547 2-.547 1.281 0 2.031.61.579.452.579 1.187 0 .547-.157 1.281l-.39 1.719q-.188.812-.188 1.328 0 .328.156.937h-1.203q-.093-.343-.125-.859zm.422-2.64q-.234.093-.531.156-.281.046-.938.109-1.03.078-1.453.219-.422.14-.64.453-.22.297-.22.672 0 .5.345.828.343.312.984.312.578 0 1.11-.312.546-.313.859-.86.312-.562.484-1.578zm5.085 2.546l-.204.953q-.421.11-.812.11-.703 0-1.125-.344-.313-.25-.313-.703 0-.235.172-1.047l.828-4.016h-.921l.187-.906h.938l.343-1.703 1.36-.813-.532 2.516h1.157l-.188.906h-1.156l-.797 3.813q-.156.734-.156.875 0 .219.11.328.124.11.405.11.391 0 .704-.079zm1.046-1.406l1.188-.078q0 .515.156.875t.578.594q.422.218.969.218.781 0 1.172-.312.39-.313.39-.735 0-.312-.234-.578-.234-.28-1.172-.672-.937-.406-1.187-.578-.438-.265-.672-.625-.219-.359-.219-.828 0-.812.656-1.39.657-.594 1.828-.594 1.297 0 1.97.61.687.593.718 1.577l-1.156.078q-.032-.625-.453-.984-.407-.375-1.172-.375-.61 0-.953.281-.329.282-.329.61 0 .312.297.562.188.172 1 .531 1.36.579 1.703.922.563.532.563 1.313 0 .515-.313 1.015-.312.485-.968.782-.641.297-1.516.297-1.203 0-2.047-.594-.844-.594-.797-1.922zm15.336.016l1.156.109q-.25.86-1.14 1.625-.89.766-2.125.766-.766 0-1.407-.344-.64-.36-.984-1.031-.328-.688-.328-1.547 0-1.14.516-2.203.53-1.063 1.359-1.579.844-.515 1.812-.515 1.235 0 1.97.765.75.766.75 2.094 0 .5-.095 1.047h-5.093q-.032.188-.032.36 0 .968.438 1.484.453.5 1.11.5.593 0 1.171-.39.594-.391.922-1.141zm-3.422-1.72h3.875q.016-.187.016-.265 0-.875-.453-1.344-.438-.484-1.125-.484-.766 0-1.39.531-.61.516-.923 1.563zm5.928 4.063l1.25-6h-1.047l.188-.906h1.047l.203-.984q.156-.735.312-1.063.172-.328.547-.531.375-.219 1.016-.219.453 0 1.312.188l-.218 1.031q-.594-.156-1-.156-.344 0-.532.172-.171.171-.296.812l-.157.75h1.313l-.188.906h-1.312l-1.266 6h-1.172zm3.703 0l1.25-6h-1.047l.188-.906h1.047l.203-.984q.156-.735.312-1.063.172-.328.547-.531.375-.219 1.016-.219.453 0 1.312.188l-.218 1.031q-.594-.156-1-.156-.344 0-.532.172-.171.171-.296.812l-.157.75h1.313l-.188.906h-1.312l-1.266 6h-1.172zm8.61-2.343l1.156.109q-.25.86-1.14 1.625-.891.766-2.126.766-.765 0-1.406-.344-.64-.36-.984-1.031-.329-.688-.329-1.547 0-1.14.516-2.203.531-1.063 1.36-1.579.843-.515 1.812-.515 1.234 0 1.969.765.75.766.75 2.094 0 .5-.094 1.047h-5.094q-.031.188-.031.36 0 .968.437 1.484.454.5 1.11.5.594 0 1.172-.39.593-.391.922-1.141zm-3.422-1.72h3.875q.015-.187.015-.265 0-.875-.453-1.344-.437-.484-1.125-.484-.765 0-1.39.531-.61.516-.922 1.563zm10.537 1.548l1.172.125q-.438 1.297-1.266 1.922-.812.625-1.843.625-1.141 0-1.844-.72-.688-.734-.688-2.046 0-1.125.438-2.219.453-1.094 1.281-1.656.844-.578 1.922-.578 1.11 0 1.766.625.656.625.656 1.656l-1.156.078q-.016-.656-.391-1.015-.375-.375-.984-.375-.704 0-1.235.453-.515.437-.812 1.36-.297.905-.297 1.75 0 .89.39 1.343.391.437.97.437.562 0 1.077-.437.532-.438.844-1.328zm4.649 1.562l-.204.953q-.421.11-.812.11-.703 0-1.125-.344-.313-.25-.313-.703 0-.235.172-1.047l.828-4.016h-.921l.187-.906h.938l.343-1.703 1.36-.813-.532 2.516h1.157l-.188.906h-1.156l-.797 3.813q-.156.734-.156.875 0 .219.11.328.124.11.405.11.391 0 .704-.079z"/><path d="M261.223 161.361a8.64 8.64 0 018.64-8.64h173.649a8.64 8.64 0 018.64 8.64v34.561a8.64 8.64 0 01-8.64 8.641H269.864a8.64 8.64 0 01-8.64-8.64z"/><path stroke="#4a86e8" stroke-width="4" stroke-linejoin="round" stroke-linecap="butt" d="M261.223 161.361h0a8.64 8.64 0 018.64-8.64h173.649a8.64 8.64 0 018.64 8.64v34.561a8.64 8.64 0 01-8.64 8.641H269.864a8.64 8.64 0 01-8.64-8.64z"/><path fill="#000" d="M300.52 185.562v-13.36h2.656l3.156 9.453q.438 1.329.641 1.985.234-.735.703-2.14l3.203-9.298h2.375v13.36h-1.703V174.39l-3.875 11.172h-1.594l-3.859-11.375v11.375h-1.703zm14.775-4.844q0-2.688 1.484-3.969 1.25-1.078 3.047-1.078 2 0 3.266 1.313 1.266 1.296 1.266 3.609 0 1.86-.563 2.937-.562 1.063-1.64 1.657-1.063.593-2.329.593-2.03 0-3.28-1.296-1.25-1.313-1.25-3.766zm1.688 0q0 1.86.796 2.797.813.922 2.047.922 1.22 0 2.032-.922.812-.938.812-2.844 0-1.797-.812-2.719-.813-.922-2.032-.922-1.234 0-2.047.922-.796.907-.796 2.766zm9.297 4.844v-9.672h1.469v1.375q1.062-1.594 3.078-1.594.875 0 1.61.313.734.312 1.093.828.375.5.516 1.203.094.453.094 1.594v5.953h-1.641v-5.89q0-1-.203-1.485-.188-.5-.672-.797-.484-.297-1.14-.297-1.048 0-1.813.672-.75.656-.75 2.515v5.282h-1.64zm16.688-1.188q-.921.766-1.765 1.094-.828.312-1.797.312-1.594 0-2.453-.78-.86-.782-.86-1.985 0-.719.329-1.297.328-.594.843-.938.532-.359 1.188-.546.469-.125 1.453-.25 1.984-.235 2.922-.563.015-.344.015-.422 0-1-.468-1.422-.625-.547-1.875-.547-1.157 0-1.703.407-.547.406-.813 1.422l-1.61-.22q.22-1.015.72-1.64.5-.64 1.453-.984.953-.344 2.187-.344 1.25 0 2.016.297.78.281 1.14.734.375.438.516 1.11.078.422.078 1.515v2.188q0 2.281.11 2.89.109.594.406 1.157h-1.703q-.266-.516-.329-1.188zm-.14-3.672q-.89.375-2.672.625-1.016.141-1.438.328-.421.188-.656.532-.219.343-.219.781 0 .656.5 1.094.5.437 1.454.437.937 0 1.671-.406.75-.422 1.094-1.14.266-.563.266-1.641v-.61zm10.47 4.86v-1.219q-.907 1.437-2.704 1.437-1.156 0-2.125-.64-.969-.64-1.5-1.781t-.531-2.625q0-1.454.484-2.625.485-1.188 1.438-1.813.969-.625 2.172-.625.875 0 1.547.375.687.36 1.109.953v-4.797h1.64v13.36h-1.53zm-5.173-4.828q0 1.859.782 2.78.78.923 1.843.923 1.079 0 1.829-.875.75-.89.75-2.688 0-1.984-.766-2.906-.766-.938-1.89-.938-1.079 0-1.813.891-.735.89-.735 2.813zm19.017.14l1.765.453q-.562 2.172-2 3.328-1.437 1.141-3.53 1.141-2.157 0-3.517-.875-1.343-.89-2.062-2.547-.703-1.672-.703-3.594 0-2.078.797-3.625.797-1.562 2.265-2.359 1.485-.812 3.25-.812 2 0 3.36 1.015 1.375 1.016 1.906 2.875l-1.734.406q-.47-1.453-1.36-2.109-.875-.672-2.203-.672-1.547 0-2.578.735-1.031.734-1.453 1.984-.422 1.234-.422 2.562 0 1.704.5 2.97.5 1.265 1.547 1.905 1.047.625 2.265.625 1.485 0 2.516-.859 1.031-.86 1.39-2.547zm10.05 3.5q-.921.766-1.765 1.094-.828.312-1.797.312-1.593 0-2.453-.78-.86-.782-.86-1.985 0-.719.329-1.297.328-.594.844-.938.53-.359 1.187-.546.469-.125 1.453-.25 1.985-.235 2.922-.563.016-.344.016-.422 0-1-.469-1.422-.625-.547-1.875-.547-1.156 0-1.703.407-.547.406-.813 1.422l-1.609-.22q.219-1.015.719-1.64.5-.64 1.453-.984.953-.344 2.187-.344 1.25 0 2.016.297.781.281 1.14.734.376.438.516 1.11.078.422.078 1.515v2.188q0 2.281.11 2.89.11.594.406 1.157h-1.703q-.266-.516-.328-1.188zm-.14-3.672q-.89.375-2.672.625-1.015.141-1.437.328-.422.188-.656.532-.22.343-.22.781 0 .656.5 1.094.5.437 1.454.437.937 0 1.672-.406.75-.422 1.094-1.14.265-.563.265-1.641v-.61zm4.204 4.86v-9.672h1.469v1.375q1.062-1.594 3.078-1.594.875 0 1.61.313.734.312 1.093.828.375.5.516 1.203.093.453.093 1.594v5.953h-1.64v-5.89q0-1-.203-1.485-.188-.5-.672-.797-.485-.297-1.14-.297-1.048 0-1.813.672-.75.656-.75 2.515v5.282h-1.641zm16.688-3.547l1.61.219q-.266 1.656-1.36 2.609-1.078.937-2.672.937-1.984 0-3.187-1.296-1.203-1.297-1.203-3.72 0-1.577.515-2.75.516-1.171 1.578-1.75 1.063-.593 2.313-.593 1.578 0 2.578.797 1 .797 1.281 2.266l-1.593.234q-.235-.969-.813-1.453-.578-.5-1.39-.5-1.235 0-2.016.89-.781.891-.781 2.813 0 1.953.75 2.844.75.875 1.953.875.968 0 1.61-.594.655-.594.827-1.828zm9.64.437l1.688.203q-.406 1.485-1.484 2.313-1.078.812-2.766.812-2.125 0-3.375-1.296-1.234-1.313-1.234-3.672 0-2.453 1.25-3.797 1.266-1.344 3.266-1.344 1.937 0 3.156 1.328 1.234 1.313 1.234 3.703v.438H402.1q.094 1.594.907 2.453.812.844 2.015.844.907 0 1.547-.469.64-.484 1.016-1.516zm-5.39-2.656h5.406q-.109-1.219-.625-1.828-.78-.953-2.03-.953-1.126 0-1.907.765-.766.75-.844 2.016zm9.095 5.766v-13.36h1.64v13.36h-1.64z"/><path d="M356.688 300.892v-96.315"/><path stroke="#000" stroke-width="2" stroke-linejoin="round" stroke-linecap="butt" d="M356.688 300.892v-84.315"/><path fill="#000" stroke="#000" stroke-width="2" stroke-linecap="butt" d="M359.991 216.577l-3.303-9.076-3.304 9.076z" fill-rule="evenodd"/><path d="M261.223 450.293a8.64 8.64 0 018.64-8.64h173.649a8.64 8.64 0 018.64 8.64v34.561a8.64 8.64 0 01-8.64 8.64H269.864a8.64 8.64 0 01-8.64-8.64z"/><path stroke="#4a86e8" stroke-width="4" stroke-linejoin="round" stroke-linecap="butt" d="M261.223 450.293h0a8.64 8.64 0 018.64-8.64h173.649a8.64 8.64 0 018.64 8.64v34.561a8.64 8.64 0 01-8.64 8.64H269.864a8.64 8.64 0 01-8.64-8.64z"/><path fill="#000" d="M321.512 469.806l1.766.453q-.563 2.172-2 3.328-1.438 1.14-3.531 1.14-2.157 0-3.516-.874-1.344-.89-2.062-2.547-.704-1.672-.704-3.594 0-2.078.797-3.625.797-1.562 2.266-2.36 1.484-.812 3.25-.812 2 0 3.36 1.016 1.374 1.016 1.906 2.875l-1.735.406q-.469-1.453-1.36-2.11-.874-.671-2.202-.671-1.547 0-2.578.734-1.032.735-1.454 1.985-.421 1.234-.421 2.562 0 1.703.5 2.969.5 1.266 1.546 1.906 1.047.625 2.266.625 1.484 0 2.516-.86 1.03-.858 1.39-2.546zm3.13-.156q0-2.688 1.484-3.969 1.25-1.078 3.047-1.078 2 0 3.265 1.312 1.266 1.297 1.266 3.61 0 1.86-.563 2.937-.562 1.063-1.64 1.656-1.063.594-2.328.594-2.032 0-3.282-1.297-1.25-1.312-1.25-3.765zm1.687 0q0 1.86.797 2.797.812.921 2.047.921 1.218 0 2.031-.921.812-.938.812-2.844 0-1.797-.812-2.719-.813-.922-2.031-.922-1.235 0-2.047.922-.797.906-.797 2.766zm9.298 4.844v-9.672h1.468v1.375q1.063-1.594 3.078-1.594.875 0 1.61.312.734.313 1.094.828.375.5.515 1.204.094.453.094 1.593v5.953h-1.64v-5.89q0-1-.204-1.485-.187-.5-.672-.796-.484-.297-1.14-.297-1.047 0-1.813.672-.75.656-.75 2.515v5.281h-1.64zm16.688-3.547l1.61.218q-.266 1.657-1.36 2.61-1.078.937-2.672.937-1.984 0-3.188-1.297-1.203-1.297-1.203-3.718 0-1.579.516-2.75.516-1.172 1.578-1.75 1.063-.594 2.313-.594 1.578 0 2.578.797 1 .797 1.28 2.265l-1.593.235q-.234-.969-.812-1.453-.578-.5-1.391-.5-1.234 0-2.016.89-.78.89-.78 2.813 0 1.953.75 2.844.75.874 1.952.874.969 0 1.61-.593.656-.594.828-1.828zm9.344 3.546v-1.421q-1.125 1.64-3.063 1.64-.86 0-1.61-.328-.734-.328-1.093-.828-.36-.5-.5-1.219-.11-.469-.11-1.531v-5.984h1.641v5.359q0 1.281.11 1.734.156.641.656 1.016t1.234.375q.735 0 1.375-.375.656-.39.922-1.031.266-.656.266-1.89v-5.188h1.64v9.671h-1.468zm4.031 0v-9.671h1.47v1.468q.562-1.03 1.03-1.359.485-.328 1.063-.328.828 0 1.687.531l-.562 1.516q-.61-.36-1.203-.36-.547 0-.969.328-.422.329-.61.891-.28.875-.28 1.922v5.063h-1.626zm6.213 0v-9.671h1.469v1.468q.562-1.03 1.031-1.359.485-.328 1.063-.328.828 0 1.687.531l-.562 1.516q-.61-.36-1.203-.36-.547 0-.97.328-.421.329-.609.891-.28.875-.28 1.922v5.063h-1.626zm12.853-3.109l1.688.203q-.406 1.485-1.484 2.313-1.079.812-2.766.812-2.125 0-3.375-1.297-1.234-1.312-1.234-3.672 0-2.453 1.25-3.796 1.265-1.344 3.265-1.344 1.938 0 3.156 1.328 1.235 1.313 1.235 3.703v.438h-7.219q.094 1.593.906 2.453.813.844 2.016.844.906 0 1.547-.47.64-.484 1.015-1.515zm-5.39-2.656h5.406q-.11-1.219-.625-1.828-.781-.953-2.031-.953-1.125 0-1.906.765-.766.75-.844 2.016zm9.141 5.765v-9.671h1.469v1.375q1.062-1.594 3.078-1.594.875 0 1.61.312.734.313 1.093.828.375.5.516 1.204.094.453.094 1.593v5.953h-1.641v-5.89q0-1-.203-1.485-.188-.5-.672-.796-.484-.297-1.14-.297-1.048 0-1.813.672-.75.656-.75 2.515v5.281h-1.64zm13.954-1.468l.234 1.453q-.687.14-1.234.14-.89 0-1.39-.28-.485-.282-.688-.735-.203-.469-.203-1.938v-5.578h-1.203v-1.265h1.203v-2.391l1.625-.984v3.375h1.656v1.265h-1.656v5.672q0 .688.078.89.094.204.281.329.203.11.578.11.266 0 .719-.063z"/><path d="M356.688 441.652V352.74"/><path stroke="#000" stroke-width="2" stroke-linejoin="round" stroke-linecap="butt" d="M356.688 441.652V364.74"/><path fill="#000" stroke="#000" stroke-width="2" stroke-linecap="butt" d="M359.991 364.739l-3.303-9.076-3.304 9.076z" fill-rule="evenodd"/><path d="M592.85 161.362a8.64 8.64 0 018.64-8.64h173.648a8.64 8.64 0 018.64 8.64v34.562a8.64 8.64 0 01-8.64 8.64H601.49a8.64 8.64 0 01-8.64-8.64z"/><path stroke="#4a86e8" stroke-width="4" stroke-linejoin="round" stroke-linecap="butt" d="M592.85 161.362h0a8.64 8.64 0 018.64-8.64h173.648a8.64 8.64 0 018.64 8.64v34.562a8.64 8.64 0 01-8.64 8.64H601.49a8.64 8.64 0 01-8.64-8.64z"/><path fill="#000" d="M668.957 172.204h1.765v7.718q0 2.016-.453 3.204-.453 1.187-1.64 1.937-1.188.734-3.126.734-1.875 0-3.078-.64-1.187-.656-1.703-1.875-.5-1.235-.5-3.36v-7.718h1.766v7.718q0 1.735.312 2.563.328.812 1.11 1.266.797.453 1.937.453 1.953 0 2.781-.891.828-.89.828-3.39v-7.72zm4.504 13.359v-9.672h1.468v1.375q1.063-1.594 3.079-1.594.875 0 1.609.313.734.312 1.094.828.375.5.515 1.203.094.453.094 1.594v5.953h-1.64v-5.89q0-1-.204-1.485-.187-.5-.672-.797-.484-.297-1.14-.297-1.047 0-1.813.672-.75.656-.75 2.516v5.281h-1.64zm10.375-11.469v-1.89h1.641v1.89h-1.64zm0 11.469v-9.672h1.641v9.672h-1.64zm10.301 3.703v-4.734q-.375.547-1.062.906-.688.344-1.469.344-1.719 0-2.969-1.375-1.234-1.375-1.234-3.766 0-1.469.5-2.625.516-1.156 1.469-1.75.969-.594 2.11-.594 1.796 0 2.827 1.516v-1.297h1.47v13.375h-1.642zm-5.046-8.562q0 1.859.78 2.797.782.937 1.876.937 1.047 0 1.797-.89.765-.891.765-2.704 0-1.937-.797-2.906-.796-.969-1.875-.969-1.062 0-1.812.907-.734.906-.734 2.828zm15.594 4.859v-1.422q-1.125 1.64-3.062 1.64-.86 0-1.61-.327-.734-.328-1.094-.828-.359-.5-.5-1.22-.109-.468-.109-1.53v-5.985h1.64v5.36q0 1.28.11 1.734.156.64.656 1.016.5.375 1.235.375.734 0 1.375-.375.656-.391.922-1.032.265-.656.265-1.89v-5.188h1.64v9.672h-1.468zm10.673-3.11l1.687.204q-.406 1.484-1.484 2.312-1.078.813-2.766.813-2.125 0-3.375-1.297-1.234-1.313-1.234-3.672 0-2.453 1.25-3.797 1.265-1.344 3.265-1.344 1.938 0 3.157 1.329 1.234 1.312 1.234 3.703v.437h-7.219q.094 1.594.906 2.453.813.844 2.016.844.906 0 1.547-.469.64-.484 1.016-1.515zm-5.391-2.656h5.406q-.11-1.218-.625-1.828-.781-.953-2.031-.953-1.125 0-1.906.766-.766.75-.844 2.015z"/><path d="M1019.94 435.387l.032-377.858"/><path stroke="#000" stroke-width="2" stroke-linejoin="round" stroke-linecap="butt" d="M1019.94 435.387l.031-365.858"/><path fill="#000" stroke="#000" stroke-width="2" stroke-linecap="butt" d="M1023.275 69.53l-3.303-9.077-3.304 9.076z" fill-rule="evenodd"/><path d="M452.152 326.814L688.31 204.577"/><path stroke="#000" stroke-width="2" stroke-linejoin="round" stroke-linecap="butt" d="M452.152 326.814l225.5-116.72"/><path fill="#000" stroke="#000" stroke-width="2" stroke-linecap="butt" d="M679.171 213.027l6.542-7.106-9.579 1.239z" fill-rule="evenodd"/></g></svg>